<mxfile host="65bd71144e">
    <diagram id="CjfQBDizP03ljIALrH3r" name="Page-1">
        <mxGraphModel dx="867" dy="1839" grid="1" gridSize="10" guides="1" tooltips="1" connect="1" arrows="1" fold="1" page="1" pageScale="1" pageWidth="850" pageHeight="1100" math="0" shadow="0">
            <root>
                <mxCell id="0"/>
                <mxCell id="1" parent="0"/>
                <mxCell id="fhI_MAW543BDFD8Se3oL-381" value="" style="rounded=0;whiteSpace=wrap;html=1;strokeColor=default;" parent="1" vertex="1">
                    <mxGeometry x="95.5" y="1020" width="564.5" height="460" as="geometry"/>
                </mxCell>
                <mxCell id="fhI_MAW543BDFD8Se3oL-102" value="" style="rounded=0;whiteSpace=wrap;html=1;strokeColor=default;" parent="1" vertex="1">
                    <mxGeometry x="90" y="550" width="710" height="440" as="geometry"/>
                </mxCell>
                <mxCell id="fhI_MAW543BDFD8Se3oL-317" value="&lt;b&gt;多重哈希子系统&lt;/b&gt;" style="rounded=0;whiteSpace=wrap;html=1;strokeColor=default;labelPosition=center;verticalLabelPosition=top;align=center;verticalAlign=bottom;" parent="1" vertex="1">
                    <mxGeometry x="146" y="770" width="140" height="175" as="geometry"/>
                </mxCell>
                <mxCell id="fhI_MAW543BDFD8Se3oL-212" value="" style="rounded=0;whiteSpace=wrap;html=1;strokeColor=default;" parent="1" vertex="1">
                    <mxGeometry x="40" y="1550" width="780" height="650" as="geometry"/>
                </mxCell>
                <mxCell id="fhI_MAW543BDFD8Se3oL-288" value="" style="rounded=0;whiteSpace=wrap;html=1;strokeColor=default;verticalAlign=bottom;" parent="1" vertex="1">
                    <mxGeometry x="141" y="1955" width="599" height="205" as="geometry"/>
                </mxCell>
                <mxCell id="fhI_MAW543BDFD8Se3oL-287" value="" style="rounded=0;whiteSpace=wrap;html=1;strokeColor=default;verticalAlign=bottom;" parent="1" vertex="1">
                    <mxGeometry x="141" y="1694" width="599" height="190" as="geometry"/>
                </mxCell>
                <mxCell id="fhI_MAW543BDFD8Se3oL-78" value="" style="rounded=0;whiteSpace=wrap;html=1;strokeColor=default;" parent="1" vertex="1">
                    <mxGeometry x="89.25" y="-30" width="657.5" height="520" as="geometry"/>
                </mxCell>
                <mxCell id="fhI_MAW543BDFD8Se3oL-95" value="" style="rounded=0;whiteSpace=wrap;html=1;strokeColor=default;" parent="1" vertex="1">
                    <mxGeometry x="319.75" y="317.5" width="230" height="160" as="geometry"/>
                </mxCell>
                <mxCell id="fhI_MAW543BDFD8Se3oL-94" value="" style="rounded=0;whiteSpace=wrap;html=1;strokeColor=default;" parent="1" vertex="1">
                    <mxGeometry x="119.25" y="30" width="120" height="440" as="geometry"/>
                </mxCell>
                <mxCell id="fhI_MAW543BDFD8Se3oL-70" style="edgeStyle=orthogonalEdgeStyle;rounded=0;orthogonalLoop=1;jettySize=auto;html=1;exitX=0.5;exitY=1;exitDx=0;exitDy=0;entryX=1.007;entryY=0.173;entryDx=0;entryDy=0;entryPerimeter=0;startArrow=classic;startFill=1;endArrow=none;endFill=0;" parent="1" source="fhI_MAW543BDFD8Se3oL-3" target="fhI_MAW543BDFD8Se3oL-67" edge="1">
                    <mxGeometry relative="1" as="geometry"/>
                </mxCell>
                <mxCell id="fhI_MAW543BDFD8Se3oL-71" value="加密存储" style="edgeLabel;html=1;align=center;verticalAlign=middle;resizable=0;points=[];" parent="fhI_MAW543BDFD8Se3oL-70" vertex="1" connectable="0">
                    <mxGeometry x="0.3754" relative="1" as="geometry">
                        <mxPoint as="offset"/>
                    </mxGeometry>
                </mxCell>
                <mxCell id="fhI_MAW543BDFD8Se3oL-3" value="区块链网络" style="shape=image;html=1;verticalAlign=top;verticalLabelPosition=bottom;labelBackgroundColor=#ffffff;imageAspect=0;aspect=fixed;image=https://cdn1.iconfinder.com/data/icons/cryptocurrency-blockchain-fintech-free/32/Cryptocurrency_blockchain_data-37-128.png" parent="1" vertex="1">
                    <mxGeometry x="583.75" y="170" width="128" height="128" as="geometry"/>
                </mxCell>
                <mxCell id="fhI_MAW543BDFD8Se3oL-59" style="edgeStyle=orthogonalEdgeStyle;rounded=0;orthogonalLoop=1;jettySize=auto;html=1;exitX=0;exitY=0.75;exitDx=0;exitDy=0;exitPerimeter=0;entryX=0.93;entryY=0.5;entryDx=0;entryDy=0;entryPerimeter=0;" parent="1" source="fhI_MAW543BDFD8Se3oL-5" target="fhI_MAW543BDFD8Se3oL-9" edge="1">
                    <mxGeometry relative="1" as="geometry">
                        <Array as="points">
                            <mxPoint x="396.75" y="95"/>
                            <mxPoint x="396.75" y="225"/>
                        </Array>
                    </mxGeometry>
                </mxCell>
                <mxCell id="fhI_MAW543BDFD8Se3oL-62" value="获取数据文件数字指纹" style="edgeLabel;html=1;align=center;verticalAlign=middle;resizable=0;points=[];" parent="fhI_MAW543BDFD8Se3oL-59" vertex="1" connectable="0">
                    <mxGeometry x="0.3821" y="-2" relative="1" as="geometry">
                        <mxPoint as="offset"/>
                    </mxGeometry>
                </mxCell>
                <mxCell id="fhI_MAW543BDFD8Se3oL-60" style="edgeStyle=orthogonalEdgeStyle;rounded=0;orthogonalLoop=1;jettySize=auto;html=1;exitX=1;exitY=0.5;exitDx=0;exitDy=0;exitPerimeter=0;entryX=0;entryY=0.5;entryDx=0;entryDy=0;" parent="1" source="fhI_MAW543BDFD8Se3oL-5" target="fhI_MAW543BDFD8Se3oL-4" edge="1">
                    <mxGeometry relative="1" as="geometry"/>
                </mxCell>
                <mxCell id="fhI_MAW543BDFD8Se3oL-72" value="存储合约" style="edgeLabel;html=1;align=center;verticalAlign=middle;resizable=0;points=[];" parent="fhI_MAW543BDFD8Se3oL-60" vertex="1" connectable="0">
                    <mxGeometry x="0.0295" relative="1" as="geometry">
                        <mxPoint as="offset"/>
                    </mxGeometry>
                </mxCell>
                <mxCell id="fhI_MAW543BDFD8Se3oL-5" value="可信存储服务" style="sketch=0;points=[[0,0,0],[0.25,0,0],[0.5,0,0],[0.75,0,0],[1,0,0],[0,1,0],[0.25,1,0],[0.5,1,0],[0.75,1,0],[1,1,0],[0,0.25,0],[0,0.5,0],[0,0.75,0],[1,0.25,0],[1,0.5,0],[1,0.75,0]];outlineConnect=0;fontColor=#333333;gradientDirection=north;fillColor=#f5f5f5;strokeColor=#666666;dashed=0;verticalLabelPosition=bottom;verticalAlign=top;align=center;html=1;fontSize=12;fontStyle=0;aspect=fixed;shape=mxgraph.aws4.resourceIcon;resIcon=mxgraph.aws4.elastic_file_system;" parent="1" vertex="1">
                    <mxGeometry x="426.75" y="36.8" width="78" height="78" as="geometry"/>
                </mxCell>
                <mxCell id="fhI_MAW543BDFD8Se3oL-4" value="" style="aspect=fixed;perimeter=ellipsePerimeter;html=1;align=center;shadow=0;dashed=0;fontColor=#4277BB;labelBackgroundColor=#ffffff;fontSize=12;spacingTop=3;image;image=img/lib/ibm/blockchain/smart_contract.svg;imageBackground=default;" parent="1" vertex="1">
                    <mxGeometry x="556.75" y="204" width="60" height="60" as="geometry"/>
                </mxCell>
                <mxCell id="fhI_MAW543BDFD8Se3oL-68" style="edgeStyle=orthogonalEdgeStyle;rounded=0;orthogonalLoop=1;jettySize=auto;html=1;exitX=1;exitY=0.5;exitDx=0;exitDy=0;entryX=0;entryY=1.038;entryDx=0;entryDy=0;entryPerimeter=0;" parent="1" source="fhI_MAW543BDFD8Se3oL-8" target="fhI_MAW543BDFD8Se3oL-65" edge="1">
                    <mxGeometry relative="1" as="geometry">
                        <Array as="points">
                            <mxPoint x="364.75" y="390"/>
                        </Array>
                    </mxGeometry>
                </mxCell>
                <mxCell id="fhI_MAW543BDFD8Se3oL-77" value="哈希索引" style="edgeLabel;html=1;align=center;verticalAlign=middle;resizable=0;points=[];" parent="fhI_MAW543BDFD8Se3oL-68" vertex="1" connectable="0">
                    <mxGeometry x="-0.1347" y="1" relative="1" as="geometry">
                        <mxPoint as="offset"/>
                    </mxGeometry>
                </mxCell>
                <mxCell id="fhI_MAW543BDFD8Se3oL-8" value="数字指纹" style="shape=image;html=1;verticalAlign=top;verticalLabelPosition=bottom;labelBackgroundColor=#ffffff;imageAspect=0;aspect=fixed;image=https://cdn3.iconfinder.com/data/icons/file-set-volume-1/512/Artboard_12-128.png" parent="1" vertex="1">
                    <mxGeometry x="134.75" y="345" width="89" height="89" as="geometry"/>
                </mxCell>
                <mxCell id="fhI_MAW543BDFD8Se3oL-23" style="edgeStyle=orthogonalEdgeStyle;rounded=0;orthogonalLoop=1;jettySize=auto;html=1;exitX=0.5;exitY=0;exitDx=0;exitDy=0;exitPerimeter=0;" parent="1" source="fhI_MAW543BDFD8Se3oL-9" edge="1">
                    <mxGeometry relative="1" as="geometry">
                        <mxPoint x="179.75" y="111.60000000000002" as="targetPoint"/>
                    </mxGeometry>
                </mxCell>
                <mxCell id="fhI_MAW543BDFD8Se3oL-24" style="edgeStyle=orthogonalEdgeStyle;rounded=0;orthogonalLoop=1;jettySize=auto;html=1;exitX=0.5;exitY=1;exitDx=0;exitDy=0;exitPerimeter=0;" parent="1" source="fhI_MAW543BDFD8Se3oL-9" target="fhI_MAW543BDFD8Se3oL-8" edge="1">
                    <mxGeometry relative="1" as="geometry"/>
                </mxCell>
                <mxCell id="fhI_MAW543BDFD8Se3oL-63" value="获取公钥信息" style="edgeStyle=orthogonalEdgeStyle;rounded=0;orthogonalLoop=1;jettySize=auto;html=1;exitX=1;exitY=1;exitDx=0;exitDy=0;exitPerimeter=0;entryX=0.133;entryY=0.983;entryDx=0;entryDy=0;entryPerimeter=0;" parent="1" source="fhI_MAW543BDFD8Se3oL-9" target="fhI_MAW543BDFD8Se3oL-4" edge="1">
                    <mxGeometry relative="1" as="geometry"/>
                </mxCell>
                <mxCell id="fhI_MAW543BDFD8Se3oL-9" value="用户及持有密钥" style="sketch=0;aspect=fixed;pointerEvents=1;shadow=0;dashed=0;html=1;strokeColor=#666666;labelPosition=center;verticalLabelPosition=bottom;verticalAlign=top;align=center;shape=mxgraph.mscae.enterprise.user_permissions;fillColor=#f5f5f5;fontColor=#333333;" parent="1" vertex="1">
                    <mxGeometry x="155.75" y="200" width="47" height="50" as="geometry"/>
                </mxCell>
                <mxCell id="fhI_MAW543BDFD8Se3oL-55" style="edgeStyle=orthogonalEdgeStyle;rounded=0;orthogonalLoop=1;jettySize=auto;html=1;exitX=1;exitY=0.5;exitDx=0;exitDy=0;exitPerimeter=0;entryX=0;entryY=0.5;entryDx=0;entryDy=0;entryPerimeter=0;" parent="1" source="fhI_MAW543BDFD8Se3oL-54" target="fhI_MAW543BDFD8Se3oL-5" edge="1">
                    <mxGeometry relative="1" as="geometry"/>
                </mxCell>
                <mxCell id="fhI_MAW543BDFD8Se3oL-61" value="存储数据文件" style="edgeLabel;html=1;align=center;verticalAlign=middle;resizable=0;points=[];" parent="fhI_MAW543BDFD8Se3oL-55" vertex="1" connectable="0">
                    <mxGeometry x="0.0051" y="4" relative="1" as="geometry">
                        <mxPoint as="offset"/>
                    </mxGeometry>
                </mxCell>
                <mxCell id="fhI_MAW543BDFD8Se3oL-54" value="数据文件" style="verticalLabelPosition=bottom;html=1;verticalAlign=top;align=center;strokeColor=#666666;fillColor=#f5f5f5;shape=mxgraph.azure.file_2;pointerEvents=1;fontColor=#333333;" parent="1" vertex="1">
                    <mxGeometry x="150.88" y="40" width="56.75" height="71.6" as="geometry"/>
                </mxCell>
                <mxCell id="fhI_MAW543BDFD8Se3oL-64" value="多重哈希加密存储" style="swimlane;fontStyle=0;childLayout=stackLayout;horizontal=1;startSize=26;fillColor=none;horizontalStack=0;resizeParent=1;resizeParentMax=0;resizeLast=0;collapsible=1;marginBottom=0;" parent="1" vertex="1">
                    <mxGeometry x="364.75" y="336.5" width="140" height="130" as="geometry"/>
                </mxCell>
                <mxCell id="fhI_MAW543BDFD8Se3oL-65" value="数据文件哈希加密分片1" style="text;strokeColor=default;fillColor=none;align=left;verticalAlign=top;spacingLeft=4;spacingRight=4;overflow=hidden;rotatable=0;points=[[0,0.5],[1,0.5]];portConstraint=eastwest;" parent="fhI_MAW543BDFD8Se3oL-64" vertex="1">
                    <mxGeometry y="26" width="140" height="26" as="geometry"/>
                </mxCell>
                <mxCell id="fhI_MAW543BDFD8Se3oL-67" value="数据文件哈希加密分片2&#10;" style="text;strokeColor=none;fillColor=none;align=left;verticalAlign=top;spacingLeft=4;spacingRight=4;overflow=hidden;rotatable=0;points=[[0,0.5],[1,0.5]];portConstraint=eastwest;" parent="fhI_MAW543BDFD8Se3oL-64" vertex="1">
                    <mxGeometry y="52" width="140" height="26" as="geometry"/>
                </mxCell>
                <mxCell id="fhI_MAW543BDFD8Se3oL-66" value="数据文件哈希加密分片3" style="text;strokeColor=default;fillColor=none;align=left;verticalAlign=top;spacingLeft=4;spacingRight=4;overflow=hidden;rotatable=0;points=[[0,0.5],[1,0.5]];portConstraint=eastwest;" parent="fhI_MAW543BDFD8Se3oL-64" vertex="1">
                    <mxGeometry y="78" width="140" height="26" as="geometry"/>
                </mxCell>
                <mxCell id="fhI_MAW543BDFD8Se3oL-398" value="......" style="text;strokeColor=default;fillColor=none;align=center;verticalAlign=top;spacingLeft=4;spacingRight=4;overflow=hidden;rotatable=0;points=[[0,0.5],[1,0.5]];portConstraint=eastwest;" parent="fhI_MAW543BDFD8Se3oL-64" vertex="1">
                    <mxGeometry y="104" width="140" height="26" as="geometry"/>
                </mxCell>
                <mxCell id="fhI_MAW543BDFD8Se3oL-79" value="1" style="whiteSpace=wrap;html=1;shape=partialRectangle;top=0;left=0;bottom=1;right=0;points=[[0,1],[1,1]];fillColor=none;align=center;verticalAlign=bottom;routingCenterY=0.5;snapToPoint=1;recursiveResize=0;autosize=1;treeFolding=1;treeMoving=1;newEdgeStyle={&quot;edgeStyle&quot;:&quot;entityRelationEdgeStyle&quot;,&quot;startArrow&quot;:&quot;none&quot;,&quot;endArrow&quot;:&quot;none&quot;,&quot;segment&quot;:10,&quot;curved&quot;:1};strokeColor=default;" parent="1" vertex="1">
                    <mxGeometry x="276.75" y="-10" width="40" height="20" as="geometry"/>
                </mxCell>
                <mxCell id="fhI_MAW543BDFD8Se3oL-80" value="" style="edgeStyle=entityRelationEdgeStyle;startArrow=none;endArrow=none;segment=10;curved=1;rounded=0;" parent="1" target="fhI_MAW543BDFD8Se3oL-79" edge="1">
                    <mxGeometry relative="1" as="geometry">
                        <mxPoint x="216.75" y="30" as="sourcePoint"/>
                    </mxGeometry>
                </mxCell>
                <mxCell id="fhI_MAW543BDFD8Se3oL-88" value="2" style="whiteSpace=wrap;html=1;shape=partialRectangle;top=0;left=0;bottom=1;right=0;points=[[0,1],[1,1]];fillColor=none;align=center;verticalAlign=bottom;routingCenterY=0.5;snapToPoint=1;recursiveResize=0;autosize=1;treeFolding=1;treeMoving=1;newEdgeStyle={&quot;edgeStyle&quot;:&quot;entityRelationEdgeStyle&quot;,&quot;startArrow&quot;:&quot;none&quot;,&quot;endArrow&quot;:&quot;none&quot;,&quot;segment&quot;:10,&quot;curved&quot;:1};strokeColor=default;" parent="1" vertex="1">
                    <mxGeometry x="564.75" width="40" height="20" as="geometry"/>
                </mxCell>
                <mxCell id="fhI_MAW543BDFD8Se3oL-89" value="" style="edgeStyle=entityRelationEdgeStyle;startArrow=none;endArrow=none;segment=10;curved=1;rounded=0;" parent="1" target="fhI_MAW543BDFD8Se3oL-88" edge="1">
                    <mxGeometry relative="1" as="geometry">
                        <mxPoint x="504.75" y="40" as="sourcePoint"/>
                    </mxGeometry>
                </mxCell>
                <mxCell id="fhI_MAW543BDFD8Se3oL-90" value="3" style="whiteSpace=wrap;html=1;shape=partialRectangle;top=0;left=0;bottom=1;right=0;points=[[0,1],[1,1]];fillColor=none;align=center;verticalAlign=bottom;routingCenterY=0.5;snapToPoint=1;recursiveResize=0;autosize=1;treeFolding=1;treeMoving=1;newEdgeStyle={&quot;edgeStyle&quot;:&quot;entityRelationEdgeStyle&quot;,&quot;startArrow&quot;:&quot;none&quot;,&quot;endArrow&quot;:&quot;none&quot;,&quot;segment&quot;:10,&quot;curved&quot;:1};strokeColor=default;" parent="1" vertex="1">
                    <mxGeometry x="676.75" y="140" width="40" height="20" as="geometry"/>
                </mxCell>
                <mxCell id="fhI_MAW543BDFD8Se3oL-91" value="" style="edgeStyle=entityRelationEdgeStyle;startArrow=none;endArrow=none;segment=10;curved=1;rounded=0;" parent="1" target="fhI_MAW543BDFD8Se3oL-90" edge="1">
                    <mxGeometry relative="1" as="geometry">
                        <mxPoint x="616.75" y="180" as="sourcePoint"/>
                    </mxGeometry>
                </mxCell>
                <mxCell id="fhI_MAW543BDFD8Se3oL-92" value="4" style="whiteSpace=wrap;html=1;shape=partialRectangle;top=0;left=0;bottom=1;right=0;points=[[0,1],[1,1]];fillColor=none;align=center;verticalAlign=bottom;routingCenterY=0.5;snapToPoint=1;recursiveResize=0;autosize=1;treeFolding=1;treeMoving=1;newEdgeStyle={&quot;edgeStyle&quot;:&quot;entityRelationEdgeStyle&quot;,&quot;startArrow&quot;:&quot;none&quot;,&quot;endArrow&quot;:&quot;none&quot;,&quot;segment&quot;:10,&quot;curved&quot;:1};strokeColor=default;" parent="1" vertex="1">
                    <mxGeometry x="445.75" y="230" width="40" height="20" as="geometry"/>
                </mxCell>
                <mxCell id="fhI_MAW543BDFD8Se3oL-93" value="" style="edgeStyle=entityRelationEdgeStyle;startArrow=none;endArrow=none;segment=10;curved=1;rounded=0;exitX=0.25;exitY=0;exitDx=0;exitDy=0;" parent="1" source="fhI_MAW543BDFD8Se3oL-4" target="fhI_MAW543BDFD8Se3oL-92" edge="1">
                    <mxGeometry relative="1" as="geometry">
                        <mxPoint x="426.75" y="260" as="sourcePoint"/>
                    </mxGeometry>
                </mxCell>
                <mxCell id="fhI_MAW543BDFD8Se3oL-98" value="5" style="whiteSpace=wrap;html=1;shape=partialRectangle;top=0;left=0;bottom=1;right=0;points=[[0,1],[1,1]];fillColor=none;align=center;verticalAlign=bottom;routingCenterY=0.5;snapToPoint=1;recursiveResize=0;autosize=1;treeFolding=1;treeMoving=1;newEdgeStyle={&quot;edgeStyle&quot;:&quot;entityRelationEdgeStyle&quot;,&quot;startArrow&quot;:&quot;none&quot;,&quot;endArrow&quot;:&quot;none&quot;,&quot;segment&quot;:10,&quot;curved&quot;:1};strokeColor=default;" parent="1" vertex="1">
                    <mxGeometry x="609.75" y="400.5" width="40" height="20" as="geometry"/>
                </mxCell>
                <mxCell id="fhI_MAW543BDFD8Se3oL-99" value="" style="edgeStyle=entityRelationEdgeStyle;startArrow=none;endArrow=none;segment=10;curved=1;rounded=0;" parent="1" target="fhI_MAW543BDFD8Se3oL-98" edge="1">
                    <mxGeometry relative="1" as="geometry">
                        <mxPoint x="549.75" y="440.5" as="sourcePoint"/>
                    </mxGeometry>
                </mxCell>
                <mxCell id="fhI_MAW543BDFD8Se3oL-100" value="用户端" style="text;html=1;strokeColor=none;fillColor=none;align=center;verticalAlign=middle;whiteSpace=wrap;rounded=0;" parent="1" vertex="1">
                    <mxGeometry x="142.75" y="-5" width="60" height="30" as="geometry"/>
                </mxCell>
                <mxCell id="fhI_MAW543BDFD8Se3oL-124" style="edgeStyle=orthogonalEdgeStyle;rounded=0;orthogonalLoop=1;jettySize=auto;html=1;exitX=1;exitY=0.5;exitDx=0;exitDy=0;startArrow=classic;startFill=1;endArrow=classic;endFill=1;strokeWidth=2;" parent="1" source="fhI_MAW543BDFD8Se3oL-103" target="fhI_MAW543BDFD8Se3oL-104" edge="1">
                    <mxGeometry relative="1" as="geometry"/>
                </mxCell>
                <mxCell id="fhI_MAW543BDFD8Se3oL-103" value="交互操作" style="rounded=0;whiteSpace=wrap;html=1;strokeColor=default;fontStyle=1" parent="1" vertex="1">
                    <mxGeometry x="177" y="655" width="120" height="60" as="geometry"/>
                </mxCell>
                <mxCell id="fhI_MAW543BDFD8Se3oL-125" style="edgeStyle=orthogonalEdgeStyle;rounded=0;orthogonalLoop=1;jettySize=auto;html=1;exitX=1;exitY=0.5;exitDx=0;exitDy=0;entryX=0;entryY=0.5;entryDx=0;entryDy=0;startArrow=classic;startFill=1;endArrow=classic;endFill=1;strokeWidth=2;" parent="1" source="fhI_MAW543BDFD8Se3oL-104" target="fhI_MAW543BDFD8Se3oL-105" edge="1">
                    <mxGeometry relative="1" as="geometry"/>
                </mxCell>
                <mxCell id="fhI_MAW543BDFD8Se3oL-127" style="edgeStyle=orthogonalEdgeStyle;rounded=0;orthogonalLoop=1;jettySize=auto;html=1;exitX=0.5;exitY=1;exitDx=0;exitDy=0;entryX=0.5;entryY=0;entryDx=0;entryDy=0;startArrow=classic;startFill=1;endArrow=classic;endFill=1;strokeWidth=2;" parent="1" source="fhI_MAW543BDFD8Se3oL-104" target="fhI_MAW543BDFD8Se3oL-106" edge="1">
                    <mxGeometry relative="1" as="geometry"/>
                </mxCell>
                <mxCell id="fhI_MAW543BDFD8Se3oL-104" value="核心服务API" style="ellipse;whiteSpace=wrap;html=1;strokeColor=default;fontStyle=1" parent="1" vertex="1">
                    <mxGeometry x="358" y="645" width="120" height="80" as="geometry"/>
                </mxCell>
                <mxCell id="fhI_MAW543BDFD8Se3oL-105" value="服务接口" style="rounded=0;whiteSpace=wrap;html=1;strokeColor=default;fontStyle=1" parent="1" vertex="1">
                    <mxGeometry x="537.5" y="655" width="120" height="60" as="geometry"/>
                </mxCell>
                <mxCell id="fhI_MAW543BDFD8Se3oL-106" value="&lt;b&gt;数据服务子系统&lt;/b&gt;" style="rounded=0;whiteSpace=wrap;html=1;strokeColor=default;labelPosition=center;verticalLabelPosition=top;align=center;verticalAlign=bottom;" parent="1" vertex="1">
                    <mxGeometry x="349" y="770" width="140" height="175" as="geometry"/>
                </mxCell>
                <mxCell id="fhI_MAW543BDFD8Se3oL-107" value="&lt;b&gt;数据路由子系统&lt;/b&gt;" style="rounded=0;whiteSpace=wrap;html=1;strokeColor=default;labelPosition=center;verticalLabelPosition=top;align=center;verticalAlign=bottom;" parent="1" vertex="1">
                    <mxGeometry x="550" y="770" width="140" height="175" as="geometry"/>
                </mxCell>
                <mxCell id="fhI_MAW543BDFD8Se3oL-111" value="安全校验" style="rounded=1;whiteSpace=wrap;html=1;strokeColor=default;" parent="1" vertex="1">
                    <mxGeometry x="554.75" y="785" width="127.75" height="30" as="geometry"/>
                </mxCell>
                <mxCell id="fhI_MAW543BDFD8Se3oL-112" value="哈希路由" style="rounded=1;whiteSpace=wrap;html=1;strokeColor=default;" parent="1" vertex="1">
                    <mxGeometry x="554.75" y="825" width="127.75" height="30" as="geometry"/>
                </mxCell>
                <mxCell id="fhI_MAW543BDFD8Se3oL-120" value="订阅发布" style="rounded=1;whiteSpace=wrap;html=1;strokeColor=default;" parent="1" vertex="1">
                    <mxGeometry x="554.5" y="905" width="128" height="30" as="geometry"/>
                </mxCell>
                <mxCell id="fhI_MAW543BDFD8Se3oL-130" value="数据块交互" style="rounded=1;whiteSpace=wrap;html=1;strokeColor=default;" parent="1" vertex="1">
                    <mxGeometry x="554.5" y="865" width="128" height="30" as="geometry"/>
                </mxCell>
                <mxCell id="fhI_MAW543BDFD8Se3oL-141" value="" style="shape=flexArrow;endArrow=classic;startArrow=classic;html=1;rounded=0;strokeWidth=2;startWidth=39;startSize=18;width=24;endWidth=39;endSize=18;" parent="1" edge="1">
                    <mxGeometry width="100" height="100" relative="1" as="geometry">
                        <mxPoint x="141.88" y="1921" as="sourcePoint"/>
                        <mxPoint x="751.88" y="1921" as="targetPoint"/>
                    </mxGeometry>
                </mxCell>
                <mxCell id="fhI_MAW543BDFD8Se3oL-210" value="多重哈希校验和交易共识" style="edgeLabel;html=1;align=center;verticalAlign=middle;resizable=0;points=[];fontStyle=1" parent="fhI_MAW543BDFD8Se3oL-141" vertex="1" connectable="0">
                    <mxGeometry x="-0.0328" y="1" relative="1" as="geometry">
                        <mxPoint as="offset"/>
                    </mxGeometry>
                </mxCell>
                <mxCell id="fhI_MAW543BDFD8Se3oL-150" value="" style="group;labelPosition=center;verticalLabelPosition=bottom;align=center;verticalAlign=top;" parent="1" vertex="1" connectable="0">
                    <mxGeometry x="162.88" y="1973" width="157.5" height="175" as="geometry"/>
                </mxCell>
                <mxCell id="fhI_MAW543BDFD8Se3oL-132" value="&lt;b&gt;交易区块&lt;/b&gt;" style="rounded=0;whiteSpace=wrap;html=1;strokeColor=default;labelPosition=center;verticalLabelPosition=top;align=center;verticalAlign=bottom;" parent="fhI_MAW543BDFD8Se3oL-150" vertex="1">
                    <mxGeometry width="157.5" height="175" as="geometry"/>
                </mxCell>
                <mxCell id="fhI_MAW543BDFD8Se3oL-133" value="前一交易&lt;br&gt;区块哈希" style="rounded=0;whiteSpace=wrap;html=1;strokeColor=default;" parent="fhI_MAW543BDFD8Se3oL-150" vertex="1">
                    <mxGeometry x="7.596038774533271" y="10" width="61.72959550023935" height="50" as="geometry"/>
                </mxCell>
                <mxCell id="fhI_MAW543BDFD8Se3oL-134" value="数据哈希&lt;br&gt;校验位" style="rounded=0;whiteSpace=wrap;html=1;strokeColor=default;" parent="fhI_MAW543BDFD8Se3oL-150" vertex="1">
                    <mxGeometry x="86.28949258018191" y="10" width="61.72959550023935" height="50" as="geometry"/>
                </mxCell>
                <mxCell id="fhI_MAW543BDFD8Se3oL-135" style="edgeStyle=orthogonalEdgeStyle;rounded=0;orthogonalLoop=1;jettySize=auto;html=1;exitX=0.5;exitY=1;exitDx=0;exitDy=0;entryX=0.5;entryY=1;entryDx=0;entryDy=0;startArrow=none;startFill=0;endArrow=none;endFill=0;strokeWidth=2;" parent="fhI_MAW543BDFD8Se3oL-150" source="fhI_MAW543BDFD8Se3oL-133" target="fhI_MAW543BDFD8Se3oL-134" edge="1">
                    <mxGeometry relative="1" as="geometry"/>
                </mxCell>
                <mxCell id="fhI_MAW543BDFD8Se3oL-140" style="edgeStyle=orthogonalEdgeStyle;rounded=0;orthogonalLoop=1;jettySize=auto;html=1;exitX=0.5;exitY=0;exitDx=0;exitDy=0;startArrow=none;startFill=0;endArrow=none;endFill=0;strokeWidth=2;" parent="fhI_MAW543BDFD8Se3oL-150" edge="1">
                    <mxGeometry relative="1" as="geometry">
                        <mxPoint x="78.75" y="80" as="targetPoint"/>
                        <mxPoint x="81.10609143130685" y="99" as="sourcePoint"/>
                    </mxGeometry>
                </mxCell>
                <mxCell id="fhI_MAW543BDFD8Se3oL-136" value="顶层树根" style="rounded=0;whiteSpace=wrap;html=1;strokeColor=default;" parent="fhI_MAW543BDFD8Se3oL-150" vertex="1">
                    <mxGeometry x="18.90527764480613" y="99" width="113.09238870272858" height="30" as="geometry"/>
                </mxCell>
                <mxCell id="fhI_MAW543BDFD8Se3oL-137" value="时间戳" style="rounded=0;whiteSpace=wrap;html=1;strokeColor=default;" parent="fhI_MAW543BDFD8Se3oL-150" vertex="1">
                    <mxGeometry x="7.596038774533271" y="140" width="61.72959550023935" height="30" as="geometry"/>
                </mxCell>
                <mxCell id="fhI_MAW543BDFD8Se3oL-138" value="参数" style="rounded=0;whiteSpace=wrap;html=1;strokeColor=default;" parent="fhI_MAW543BDFD8Se3oL-150" vertex="1">
                    <mxGeometry x="86.28949258018191" y="140" width="61.72959550023935" height="30" as="geometry"/>
                </mxCell>
                <mxCell id="fhI_MAW543BDFD8Se3oL-162" value="" style="group;labelPosition=center;verticalLabelPosition=bottom;align=center;verticalAlign=top;" parent="1" vertex="1" connectable="0">
                    <mxGeometry x="361.88" y="1973" width="161.62" height="175" as="geometry"/>
                </mxCell>
                <mxCell id="fhI_MAW543BDFD8Se3oL-163" value="&lt;b&gt;交易区块&lt;/b&gt;" style="rounded=0;whiteSpace=wrap;html=1;strokeColor=default;labelPosition=center;verticalLabelPosition=top;align=center;verticalAlign=bottom;" parent="fhI_MAW543BDFD8Se3oL-162" vertex="1">
                    <mxGeometry width="161.62" height="175" as="geometry"/>
                </mxCell>
                <mxCell id="fhI_MAW543BDFD8Se3oL-164" value="前一交易&lt;br&gt;区块哈希" style="rounded=0;whiteSpace=wrap;html=1;strokeColor=default;" parent="fhI_MAW543BDFD8Se3oL-162" vertex="1">
                    <mxGeometry x="7.794741503111539" y="10" width="63.344363331737675" height="50" as="geometry"/>
                </mxCell>
                <mxCell id="fhI_MAW543BDFD8Se3oL-165" value="数据哈希&lt;br&gt;校验位" style="rounded=0;whiteSpace=wrap;html=1;strokeColor=default;" parent="fhI_MAW543BDFD8Se3oL-162" vertex="1">
                    <mxGeometry x="88.54671613212064" y="10" width="63.344363331737675" height="50" as="geometry"/>
                </mxCell>
                <mxCell id="fhI_MAW543BDFD8Se3oL-166" style="edgeStyle=orthogonalEdgeStyle;rounded=0;orthogonalLoop=1;jettySize=auto;html=1;exitX=0.5;exitY=1;exitDx=0;exitDy=0;entryX=0.5;entryY=1;entryDx=0;entryDy=0;startArrow=none;startFill=0;endArrow=none;endFill=0;strokeWidth=2;" parent="fhI_MAW543BDFD8Se3oL-162" source="fhI_MAW543BDFD8Se3oL-164" target="fhI_MAW543BDFD8Se3oL-165" edge="1">
                    <mxGeometry relative="1" as="geometry"/>
                </mxCell>
                <mxCell id="fhI_MAW543BDFD8Se3oL-167" style="edgeStyle=orthogonalEdgeStyle;rounded=0;orthogonalLoop=1;jettySize=auto;html=1;exitX=0.5;exitY=0;exitDx=0;exitDy=0;startArrow=none;startFill=0;endArrow=none;endFill=0;strokeWidth=2;" parent="fhI_MAW543BDFD8Se3oL-162" edge="1">
                    <mxGeometry relative="1" as="geometry">
                        <mxPoint x="80.81" y="80" as="targetPoint"/>
                        <mxPoint x="83.2277237912877" y="99" as="sourcePoint"/>
                    </mxGeometry>
                </mxCell>
                <mxCell id="fhI_MAW543BDFD8Se3oL-168" value="顶层树根" style="rounded=0;whiteSpace=wrap;html=1;strokeColor=default;" parent="fhI_MAW543BDFD8Se3oL-162" vertex="1">
                    <mxGeometry x="19.399815701292486" y="99" width="116.05074198180948" height="30" as="geometry"/>
                </mxCell>
                <mxCell id="fhI_MAW543BDFD8Se3oL-169" value="时间戳" style="rounded=0;whiteSpace=wrap;html=1;strokeColor=default;" parent="fhI_MAW543BDFD8Se3oL-162" vertex="1">
                    <mxGeometry x="7.794741503111539" y="140" width="63.344363331737675" height="30" as="geometry"/>
                </mxCell>
                <mxCell id="fhI_MAW543BDFD8Se3oL-170" value="参数" style="rounded=0;whiteSpace=wrap;html=1;strokeColor=default;" parent="fhI_MAW543BDFD8Se3oL-162" vertex="1">
                    <mxGeometry x="88.54671613212064" y="140" width="63.344363331737675" height="30" as="geometry"/>
                </mxCell>
                <mxCell id="fhI_MAW543BDFD8Se3oL-171" value="" style="group;labelPosition=center;verticalLabelPosition=bottom;align=center;verticalAlign=top;" parent="1" vertex="1" connectable="0">
                    <mxGeometry x="561.88" y="1973" width="160" height="175" as="geometry"/>
                </mxCell>
                <mxCell id="fhI_MAW543BDFD8Se3oL-172" value="&lt;b&gt;交易区块&lt;/b&gt;" style="rounded=0;whiteSpace=wrap;html=1;strokeColor=default;labelPosition=center;verticalLabelPosition=top;align=center;verticalAlign=bottom;" parent="fhI_MAW543BDFD8Se3oL-171" vertex="1">
                    <mxGeometry width="160" height="175" as="geometry"/>
                </mxCell>
                <mxCell id="fhI_MAW543BDFD8Se3oL-173" value="前一交易&lt;br&gt;区块哈希" style="rounded=0;whiteSpace=wrap;html=1;strokeColor=default;" parent="fhI_MAW543BDFD8Se3oL-171" vertex="1">
                    <mxGeometry x="7.716610818573482" y="10" width="62.70943034944949" height="50" as="geometry"/>
                </mxCell>
                <mxCell id="fhI_MAW543BDFD8Se3oL-174" value="数据哈希&lt;br&gt;校验位" style="rounded=0;whiteSpace=wrap;html=1;strokeColor=default;" parent="fhI_MAW543BDFD8Se3oL-171" vertex="1">
                    <mxGeometry x="87.65916706558161" y="10" width="62.70943034944949" height="50" as="geometry"/>
                </mxCell>
                <mxCell id="fhI_MAW543BDFD8Se3oL-175" style="edgeStyle=orthogonalEdgeStyle;rounded=0;orthogonalLoop=1;jettySize=auto;html=1;exitX=0.5;exitY=1;exitDx=0;exitDy=0;entryX=0.5;entryY=1;entryDx=0;entryDy=0;startArrow=none;startFill=0;endArrow=none;endFill=0;strokeWidth=2;" parent="fhI_MAW543BDFD8Se3oL-171" source="fhI_MAW543BDFD8Se3oL-173" target="fhI_MAW543BDFD8Se3oL-174" edge="1">
                    <mxGeometry relative="1" as="geometry">
                        <Array as="points">
                            <mxPoint x="39.25323121110579" y="80"/>
                            <mxPoint x="118.71708951651507" y="80"/>
                        </Array>
                    </mxGeometry>
                </mxCell>
                <mxCell id="fhI_MAW543BDFD8Se3oL-176" style="edgeStyle=orthogonalEdgeStyle;rounded=0;orthogonalLoop=1;jettySize=auto;html=1;exitX=0.5;exitY=0;exitDx=0;exitDy=0;startArrow=none;startFill=0;endArrow=none;endFill=0;strokeWidth=2;" parent="fhI_MAW543BDFD8Se3oL-171" edge="1">
                    <mxGeometry relative="1" as="geometry">
                        <mxPoint x="80" y="80" as="targetPoint"/>
                        <mxPoint x="82.39348970799425" y="99" as="sourcePoint"/>
                    </mxGeometry>
                </mxCell>
                <mxCell id="fhI_MAW543BDFD8Se3oL-177" value="顶层树根" style="rounded=0;whiteSpace=wrap;html=1;strokeColor=default;" parent="fhI_MAW543BDFD8Se3oL-171" vertex="1">
                    <mxGeometry x="19.20536141694591" y="99" width="114.88750598372427" height="30" as="geometry"/>
                </mxCell>
                <mxCell id="fhI_MAW543BDFD8Se3oL-178" value="时间戳" style="rounded=0;whiteSpace=wrap;html=1;strokeColor=default;" parent="fhI_MAW543BDFD8Se3oL-171" vertex="1">
                    <mxGeometry x="7.716610818573482" y="140" width="62.70943034944949" height="30" as="geometry"/>
                </mxCell>
                <mxCell id="fhI_MAW543BDFD8Se3oL-179" value="参数" style="rounded=0;whiteSpace=wrap;html=1;strokeColor=default;" parent="fhI_MAW543BDFD8Se3oL-171" vertex="1">
                    <mxGeometry x="87.65916706558161" y="140" width="62.70943034944949" height="30" as="geometry"/>
                </mxCell>
                <mxCell id="fhI_MAW543BDFD8Se3oL-180" value="&lt;b&gt;状态数据&lt;/b&gt;" style="rounded=0;whiteSpace=wrap;html=1;strokeColor=default;labelPosition=center;verticalLabelPosition=bottom;align=center;verticalAlign=top;horizontal=1;textDirection=ltr;" parent="1" vertex="1">
                    <mxGeometry x="162.88" y="1700" width="160" height="160" as="geometry"/>
                </mxCell>
                <mxCell id="fhI_MAW543BDFD8Se3oL-181" value="A" style="ellipse;whiteSpace=wrap;html=1;aspect=fixed;strokeColor=default;" parent="1" vertex="1">
                    <mxGeometry x="168.26" y="1761" width="45" height="45" as="geometry"/>
                </mxCell>
                <mxCell id="fhI_MAW543BDFD8Se3oL-182" value="A1" style="ellipse;whiteSpace=wrap;html=1;aspect=fixed;strokeColor=default;" parent="1" vertex="1">
                    <mxGeometry x="272.26" y="1708" width="45" height="45" as="geometry"/>
                </mxCell>
                <mxCell id="fhI_MAW543BDFD8Se3oL-183" value="A2" style="ellipse;whiteSpace=wrap;html=1;aspect=fixed;strokeColor=default;" parent="1" vertex="1">
                    <mxGeometry x="271.26" y="1806" width="45" height="45" as="geometry"/>
                </mxCell>
                <mxCell id="fhI_MAW543BDFD8Se3oL-189" value="" style="endArrow=classic;startArrow=classic;html=1;rounded=0;sketch=0;strokeColor=default;strokeWidth=2;jumpStyle=none;dashed=1;dashPattern=1 2;" parent="1" source="fhI_MAW543BDFD8Se3oL-181" target="fhI_MAW543BDFD8Se3oL-182" edge="1">
                    <mxGeometry width="50" height="50" relative="1" as="geometry">
                        <mxPoint x="193.51" y="1790" as="sourcePoint"/>
                        <mxPoint x="243.51" y="1740" as="targetPoint"/>
                    </mxGeometry>
                </mxCell>
                <mxCell id="fhI_MAW543BDFD8Se3oL-191" value="索引" style="edgeLabel;html=1;align=center;verticalAlign=middle;resizable=0;points=[];" parent="fhI_MAW543BDFD8Se3oL-189" vertex="1" connectable="0">
                    <mxGeometry x="0.0557" y="3" relative="1" as="geometry">
                        <mxPoint y="1" as="offset"/>
                    </mxGeometry>
                </mxCell>
                <mxCell id="fhI_MAW543BDFD8Se3oL-190" value="" style="endArrow=classic;startArrow=classic;html=1;rounded=0;sketch=0;strokeColor=default;strokeWidth=2;jumpStyle=none;dashed=1;dashPattern=1 2;" parent="1" source="fhI_MAW543BDFD8Se3oL-181" target="fhI_MAW543BDFD8Se3oL-183" edge="1">
                    <mxGeometry width="50" height="50" relative="1" as="geometry">
                        <mxPoint x="223.4769137151825" y="1784.7216467308547" as="sourcePoint"/>
                        <mxPoint x="262.1464599647047" y="1767.5184237654419" as="targetPoint"/>
                    </mxGeometry>
                </mxCell>
                <mxCell id="fhI_MAW543BDFD8Se3oL-192" value="索引" style="edgeLabel;html=1;align=center;verticalAlign=middle;resizable=0;points=[];" parent="fhI_MAW543BDFD8Se3oL-190" vertex="1" connectable="0">
                    <mxGeometry x="-0.0098" y="1" relative="1" as="geometry">
                        <mxPoint as="offset"/>
                    </mxGeometry>
                </mxCell>
                <mxCell id="fhI_MAW543BDFD8Se3oL-193" value="&lt;b&gt;状态数据&lt;/b&gt;" style="rounded=0;whiteSpace=wrap;html=1;strokeColor=default;labelPosition=center;verticalLabelPosition=bottom;align=center;verticalAlign=top;horizontal=1;textDirection=ltr;" parent="1" vertex="1">
                    <mxGeometry x="361.88" y="1700" width="160" height="160" as="geometry"/>
                </mxCell>
                <mxCell id="fhI_MAW543BDFD8Se3oL-194" value="B" style="ellipse;whiteSpace=wrap;html=1;aspect=fixed;strokeColor=default;" parent="1" vertex="1">
                    <mxGeometry x="367.26" y="1761" width="45" height="45" as="geometry"/>
                </mxCell>
                <mxCell id="fhI_MAW543BDFD8Se3oL-195" value="B1" style="ellipse;whiteSpace=wrap;html=1;aspect=fixed;strokeColor=default;" parent="1" vertex="1">
                    <mxGeometry x="471.26" y="1708" width="45" height="45" as="geometry"/>
                </mxCell>
                <mxCell id="fhI_MAW543BDFD8Se3oL-196" value="B2" style="ellipse;whiteSpace=wrap;html=1;aspect=fixed;strokeColor=default;" parent="1" vertex="1">
                    <mxGeometry x="470.26" y="1806" width="45" height="45" as="geometry"/>
                </mxCell>
                <mxCell id="fhI_MAW543BDFD8Se3oL-197" value="" style="endArrow=classic;startArrow=classic;html=1;rounded=0;sketch=0;strokeColor=default;strokeWidth=2;jumpStyle=none;dashed=1;dashPattern=1 2;" parent="1" source="fhI_MAW543BDFD8Se3oL-194" target="fhI_MAW543BDFD8Se3oL-195" edge="1">
                    <mxGeometry width="50" height="50" relative="1" as="geometry">
                        <mxPoint x="392.51" y="1790" as="sourcePoint"/>
                        <mxPoint x="442.51" y="1740" as="targetPoint"/>
                    </mxGeometry>
                </mxCell>
                <mxCell id="fhI_MAW543BDFD8Se3oL-198" value="索引" style="edgeLabel;html=1;align=center;verticalAlign=middle;resizable=0;points=[];" parent="fhI_MAW543BDFD8Se3oL-197" vertex="1" connectable="0">
                    <mxGeometry x="0.0557" y="3" relative="1" as="geometry">
                        <mxPoint y="1" as="offset"/>
                    </mxGeometry>
                </mxCell>
                <mxCell id="fhI_MAW543BDFD8Se3oL-199" value="" style="endArrow=classic;startArrow=classic;html=1;rounded=0;sketch=0;strokeColor=default;strokeWidth=2;jumpStyle=none;dashed=1;dashPattern=1 2;" parent="1" source="fhI_MAW543BDFD8Se3oL-194" target="fhI_MAW543BDFD8Se3oL-196" edge="1">
                    <mxGeometry width="50" height="50" relative="1" as="geometry">
                        <mxPoint x="422.4769137151825" y="1784.7216467308547" as="sourcePoint"/>
                        <mxPoint x="461.1464599647047" y="1767.5184237654419" as="targetPoint"/>
                    </mxGeometry>
                </mxCell>
                <mxCell id="fhI_MAW543BDFD8Se3oL-200" value="索引" style="edgeLabel;html=1;align=center;verticalAlign=middle;resizable=0;points=[];" parent="fhI_MAW543BDFD8Se3oL-199" vertex="1" connectable="0">
                    <mxGeometry x="-0.0098" y="1" relative="1" as="geometry">
                        <mxPoint as="offset"/>
                    </mxGeometry>
                </mxCell>
                <mxCell id="fhI_MAW543BDFD8Se3oL-201" value="&lt;b&gt;状态数据&lt;/b&gt;" style="rounded=0;whiteSpace=wrap;html=1;strokeColor=default;labelPosition=center;verticalLabelPosition=bottom;align=center;verticalAlign=top;horizontal=1;textDirection=ltr;" parent="1" vertex="1">
                    <mxGeometry x="561.88" y="1700" width="160" height="160" as="geometry"/>
                </mxCell>
                <mxCell id="fhI_MAW543BDFD8Se3oL-202" value="C" style="ellipse;whiteSpace=wrap;html=1;aspect=fixed;strokeColor=default;" parent="1" vertex="1">
                    <mxGeometry x="567.26" y="1761" width="45" height="45" as="geometry"/>
                </mxCell>
                <mxCell id="fhI_MAW543BDFD8Se3oL-203" value="C1" style="ellipse;whiteSpace=wrap;html=1;aspect=fixed;strokeColor=default;" parent="1" vertex="1">
                    <mxGeometry x="671.26" y="1708" width="45" height="45" as="geometry"/>
                </mxCell>
                <mxCell id="fhI_MAW543BDFD8Se3oL-204" value="C2" style="ellipse;whiteSpace=wrap;html=1;aspect=fixed;strokeColor=default;" parent="1" vertex="1">
                    <mxGeometry x="670.26" y="1806" width="45" height="45" as="geometry"/>
                </mxCell>
                <mxCell id="fhI_MAW543BDFD8Se3oL-205" value="" style="endArrow=classic;startArrow=classic;html=1;rounded=0;sketch=0;strokeColor=default;strokeWidth=2;jumpStyle=none;dashed=1;dashPattern=1 2;" parent="1" source="fhI_MAW543BDFD8Se3oL-202" target="fhI_MAW543BDFD8Se3oL-203" edge="1">
                    <mxGeometry width="50" height="50" relative="1" as="geometry">
                        <mxPoint x="592.51" y="1790" as="sourcePoint"/>
                        <mxPoint x="642.51" y="1740" as="targetPoint"/>
                    </mxGeometry>
                </mxCell>
                <mxCell id="fhI_MAW543BDFD8Se3oL-206" value="索引" style="edgeLabel;html=1;align=center;verticalAlign=middle;resizable=0;points=[];" parent="fhI_MAW543BDFD8Se3oL-205" vertex="1" connectable="0">
                    <mxGeometry x="0.0557" y="3" relative="1" as="geometry">
                        <mxPoint y="1" as="offset"/>
                    </mxGeometry>
                </mxCell>
                <mxCell id="fhI_MAW543BDFD8Se3oL-207" value="" style="endArrow=classic;startArrow=classic;html=1;rounded=0;sketch=0;strokeColor=default;strokeWidth=2;jumpStyle=none;dashed=1;dashPattern=1 2;" parent="1" source="fhI_MAW543BDFD8Se3oL-202" target="fhI_MAW543BDFD8Se3oL-204" edge="1">
                    <mxGeometry width="50" height="50" relative="1" as="geometry">
                        <mxPoint x="622.4769137151825" y="1784.7216467308547" as="sourcePoint"/>
                        <mxPoint x="661.1464599647047" y="1767.5184237654419" as="targetPoint"/>
                    </mxGeometry>
                </mxCell>
                <mxCell id="fhI_MAW543BDFD8Se3oL-208" value="索引" style="edgeLabel;html=1;align=center;verticalAlign=middle;resizable=0;points=[];" parent="fhI_MAW543BDFD8Se3oL-207" vertex="1" connectable="0">
                    <mxGeometry x="-0.0098" y="1" relative="1" as="geometry">
                        <mxPoint as="offset"/>
                    </mxGeometry>
                </mxCell>
                <mxCell id="fhI_MAW543BDFD8Se3oL-113" value="数据操作模块" style="rounded=1;whiteSpace=wrap;html=1;strokeColor=default;" parent="1" vertex="1">
                    <mxGeometry x="354.8" y="825" width="128" height="30" as="geometry"/>
                </mxCell>
                <mxCell id="fhI_MAW543BDFD8Se3oL-116" value="多重哈希模块" style="rounded=1;whiteSpace=wrap;html=1;strokeColor=default;" parent="1" vertex="1">
                    <mxGeometry x="150.26" y="825" width="128" height="30" as="geometry"/>
                </mxCell>
                <mxCell id="fhI_MAW543BDFD8Se3oL-119" value="存储接入网关" style="rounded=1;whiteSpace=wrap;html=1;strokeColor=default;" parent="1" vertex="1">
                    <mxGeometry x="354.8" y="785" width="128" height="30" as="geometry"/>
                </mxCell>
                <mxCell id="fhI_MAW543BDFD8Se3oL-121" value="数据分级模块" style="rounded=1;whiteSpace=wrap;html=1;strokeColor=default;" parent="1" vertex="1">
                    <mxGeometry x="150.26" y="785" width="128" height="30" as="geometry"/>
                </mxCell>
                <mxCell id="fhI_MAW543BDFD8Se3oL-122" value="上链锚定模块" style="rounded=1;whiteSpace=wrap;html=1;strokeColor=default;" parent="1" vertex="1">
                    <mxGeometry x="150.26" y="865" width="128" height="30" as="geometry"/>
                </mxCell>
                <mxCell id="fhI_MAW543BDFD8Se3oL-123" value="证书管理模块" style="rounded=1;whiteSpace=wrap;html=1;strokeColor=default;" parent="1" vertex="1">
                    <mxGeometry x="150.26" y="905" width="128" height="30" as="geometry"/>
                </mxCell>
                <mxCell id="fhI_MAW543BDFD8Se3oL-128" value="数据监控模块" style="rounded=1;whiteSpace=wrap;html=1;strokeColor=default;" parent="1" vertex="1">
                    <mxGeometry x="354.8" y="865" width="128" height="30" as="geometry"/>
                </mxCell>
                <mxCell id="fhI_MAW543BDFD8Se3oL-129" value="数据存储模块" style="rounded=1;whiteSpace=wrap;html=1;strokeColor=default;" parent="1" vertex="1">
                    <mxGeometry x="354.8" y="905" width="128" height="30" as="geometry"/>
                </mxCell>
                <mxCell id="fhI_MAW543BDFD8Se3oL-215" value="" style="rounded=0;whiteSpace=wrap;html=1;strokeColor=default;verticalAlign=bottom;" parent="1" vertex="1">
                    <mxGeometry x="140" y="1630" width="600" height="60" as="geometry"/>
                </mxCell>
                <mxCell id="fhI_MAW543BDFD8Se3oL-220" value="存储资源管理" style="rounded=1;whiteSpace=wrap;html=1;strokeColor=default;verticalAlign=middle;labelPosition=center;verticalLabelPosition=middle;align=center;" parent="1" vertex="1">
                    <mxGeometry x="338.26" y="1640" width="85.5" height="40" as="geometry"/>
                </mxCell>
                <mxCell id="fhI_MAW543BDFD8Se3oL-221" value="服务接入认证" style="rounded=1;whiteSpace=wrap;html=1;strokeColor=default;verticalAlign=middle;labelPosition=center;verticalLabelPosition=middle;align=center;" parent="1" vertex="1">
                    <mxGeometry x="244.51" y="1640" width="85.5" height="40" as="geometry"/>
                </mxCell>
                <mxCell id="fhI_MAW543BDFD8Se3oL-222" value="数据资产管理" style="rounded=1;whiteSpace=wrap;html=1;strokeColor=default;verticalAlign=middle;labelPosition=center;verticalLabelPosition=middle;align=center;" parent="1" vertex="1">
                    <mxGeometry x="435.01" y="1640" width="85.5" height="40" as="geometry"/>
                </mxCell>
                <mxCell id="fhI_MAW543BDFD8Se3oL-223" value="访问授权管理" style="rounded=1;whiteSpace=wrap;html=1;strokeColor=default;verticalAlign=middle;labelPosition=center;verticalLabelPosition=middle;align=center;" parent="1" vertex="1">
                    <mxGeometry x="530.76" y="1640" width="85.5" height="40" as="geometry"/>
                </mxCell>
                <mxCell id="fhI_MAW543BDFD8Se3oL-224" value="资产凭证管理" style="rounded=1;whiteSpace=wrap;html=1;strokeColor=default;verticalAlign=middle;labelPosition=center;verticalLabelPosition=middle;align=center;" parent="1" vertex="1">
                    <mxGeometry x="624.76" y="1640" width="85.5" height="40" as="geometry"/>
                </mxCell>
                <mxCell id="fhI_MAW543BDFD8Se3oL-225" value="存储合约" style="text;html=1;strokeColor=none;fillColor=none;align=center;verticalAlign=middle;whiteSpace=wrap;rounded=0;fontStyle=1" parent="1" vertex="1">
                    <mxGeometry x="160" y="1645" width="60" height="30" as="geometry"/>
                </mxCell>
                <mxCell id="fhI_MAW543BDFD8Se3oL-230" value="" style="rounded=0;whiteSpace=wrap;html=1;fillColor=none;fontColor=default;" parent="1" vertex="1">
                    <mxGeometry x="40" y="2240" width="970" height="600" as="geometry"/>
                </mxCell>
                <mxCell id="fhI_MAW543BDFD8Se3oL-231" value="用户设备" style="rounded=0;whiteSpace=wrap;html=1;labelBackgroundColor=none;fillColor=none;fontColor=default;strokeColor=#FFFFFF;" parent="1" vertex="1">
                    <mxGeometry x="161" y="2320" width="120" height="40" as="geometry"/>
                </mxCell>
                <mxCell id="fhI_MAW543BDFD8Se3oL-232" value="可信存储服务" style="rounded=0;whiteSpace=wrap;html=1;labelBackgroundColor=none;fillColor=none;fontColor=default;strokeColor=#FFFFFF;" parent="1" vertex="1">
                    <mxGeometry x="361" y="2320" width="120" height="40" as="geometry"/>
                </mxCell>
                <mxCell id="fhI_MAW543BDFD8Se3oL-233" value="区块链数据服务" style="rounded=0;whiteSpace=wrap;html=1;labelBackgroundColor=none;fillColor=none;fontColor=default;strokeColor=#FFFFFF;" parent="1" vertex="1">
                    <mxGeometry x="561" y="2320" width="120" height="40" as="geometry"/>
                </mxCell>
                <mxCell id="fhI_MAW543BDFD8Se3oL-234" value="智能合约服务" style="rounded=0;whiteSpace=wrap;html=1;labelBackgroundColor=none;fillColor=none;fontColor=default;strokeColor=#FFFFFF;" parent="1" vertex="1">
                    <mxGeometry x="761" y="2320" width="120" height="40" as="geometry"/>
                </mxCell>
                <mxCell id="fhI_MAW543BDFD8Se3oL-235" value="" style="endArrow=none;dashed=1;html=1;strokeWidth=3;entryX=0.445;entryY=1.07;entryDx=0;entryDy=0;entryPerimeter=0;labelBackgroundColor=none;fontColor=default;strokeColor=#FFFFFF;" parent="1" edge="1">
                    <mxGeometry width="50" height="50" relative="1" as="geometry">
                        <mxPoint x="219" y="2820" as="sourcePoint"/>
                        <mxPoint x="219.39999999999998" y="2362.8" as="targetPoint"/>
                    </mxGeometry>
                </mxCell>
                <mxCell id="fhI_MAW543BDFD8Se3oL-236" value="" style="endArrow=none;dashed=1;html=1;strokeWidth=3;entryX=0.445;entryY=1.07;entryDx=0;entryDy=0;entryPerimeter=0;labelBackgroundColor=none;fontColor=default;strokeColor=#FFFFFF;" parent="1" edge="1">
                    <mxGeometry width="50" height="50" relative="1" as="geometry">
                        <mxPoint x="420.5" y="2817.2" as="sourcePoint"/>
                        <mxPoint x="420.9000000000001" y="2360" as="targetPoint"/>
                    </mxGeometry>
                </mxCell>
                <mxCell id="fhI_MAW543BDFD8Se3oL-237" value="" style="endArrow=none;dashed=1;html=1;strokeWidth=3;entryX=0.445;entryY=1.07;entryDx=0;entryDy=0;entryPerimeter=0;labelBackgroundColor=none;fontColor=default;strokeColor=#FFFFFF;" parent="1" edge="1">
                    <mxGeometry width="50" height="50" relative="1" as="geometry">
                        <mxPoint x="620.5" y="2817.2" as="sourcePoint"/>
                        <mxPoint x="620.9000000000001" y="2360" as="targetPoint"/>
                    </mxGeometry>
                </mxCell>
                <mxCell id="fhI_MAW543BDFD8Se3oL-238" value="" style="endArrow=none;dashed=1;html=1;strokeWidth=3;entryX=0.445;entryY=1.07;entryDx=0;entryDy=0;entryPerimeter=0;labelBackgroundColor=none;fontColor=default;strokeColor=#FFFFFF;" parent="1" edge="1">
                    <mxGeometry width="50" height="50" relative="1" as="geometry">
                        <mxPoint x="820.5" y="2817.2" as="sourcePoint"/>
                        <mxPoint x="820.9000000000001" y="2360" as="targetPoint"/>
                    </mxGeometry>
                </mxCell>
                <mxCell id="fhI_MAW543BDFD8Se3oL-239" value="" style="endArrow=classic;html=1;strokeWidth=2;labelBackgroundColor=none;fontColor=default;labelBorderColor=none;strokeColor=#999999;" parent="1" edge="1">
                    <mxGeometry width="50" height="50" relative="1" as="geometry">
                        <mxPoint x="221" y="2400" as="sourcePoint"/>
                        <mxPoint x="621" y="2400" as="targetPoint"/>
                    </mxGeometry>
                </mxCell>
                <mxCell id="fhI_MAW543BDFD8Se3oL-240" value="成员接入校验" style="edgeLabel;html=1;align=center;verticalAlign=middle;resizable=0;points=[];labelBackgroundColor=none;fontColor=default;labelBorderColor=none;" parent="fhI_MAW543BDFD8Se3oL-239" vertex="1" connectable="0">
                    <mxGeometry x="-0.274" y="1" relative="1" as="geometry">
                        <mxPoint as="offset"/>
                    </mxGeometry>
                </mxCell>
                <mxCell id="fhI_MAW543BDFD8Se3oL-241" value="" style="endArrow=classic;html=1;strokeWidth=2;labelBackgroundColor=none;fontColor=default;labelBorderColor=none;strokeColor=#999999;" parent="1" edge="1">
                    <mxGeometry width="50" height="50" relative="1" as="geometry">
                        <mxPoint x="221" y="2480" as="sourcePoint"/>
                        <mxPoint x="821" y="2480" as="targetPoint"/>
                    </mxGeometry>
                </mxCell>
                <mxCell id="fhI_MAW543BDFD8Se3oL-242" value="存储资源请求" style="edgeLabel;html=1;align=center;verticalAlign=middle;resizable=0;points=[];labelBackgroundColor=none;fontColor=default;labelBorderColor=none;" parent="fhI_MAW543BDFD8Se3oL-241" vertex="1" connectable="0">
                    <mxGeometry x="-0.426" y="1" relative="1" as="geometry">
                        <mxPoint as="offset"/>
                    </mxGeometry>
                </mxCell>
                <mxCell id="fhI_MAW543BDFD8Se3oL-243" value="" style="endArrow=classic;html=1;strokeWidth=2;labelBackgroundColor=none;fontColor=default;labelBorderColor=none;strokeColor=#999999;" parent="1" edge="1">
                    <mxGeometry width="50" height="50" relative="1" as="geometry">
                        <mxPoint x="221" y="2560" as="sourcePoint"/>
                        <mxPoint x="421" y="2560" as="targetPoint"/>
                    </mxGeometry>
                </mxCell>
                <mxCell id="fhI_MAW543BDFD8Se3oL-244" value="数据资产存储请求" style="edgeLabel;html=1;align=center;verticalAlign=middle;resizable=0;points=[];labelBackgroundColor=none;fontColor=default;labelBorderColor=none;" parent="fhI_MAW543BDFD8Se3oL-243" vertex="1" connectable="0">
                    <mxGeometry x="0.1721" y="-1" relative="1" as="geometry">
                        <mxPoint as="offset"/>
                    </mxGeometry>
                </mxCell>
                <mxCell id="fhI_MAW543BDFD8Se3oL-245" value="" style="endArrow=classic;html=1;strokeWidth=2;labelBackgroundColor=none;fontColor=default;labelBorderColor=none;strokeColor=#999999;" parent="1" edge="1">
                    <mxGeometry width="50" height="50" relative="1" as="geometry">
                        <mxPoint x="221" y="2640" as="sourcePoint"/>
                        <mxPoint x="821" y="2640" as="targetPoint"/>
                    </mxGeometry>
                </mxCell>
                <mxCell id="fhI_MAW543BDFD8Se3oL-246" value="元数据及加密指纹上链存储" style="edgeLabel;html=1;align=center;verticalAlign=middle;resizable=0;points=[];labelBackgroundColor=none;fontColor=default;labelBorderColor=none;" parent="fhI_MAW543BDFD8Se3oL-245" vertex="1" connectable="0">
                    <mxGeometry x="0.1721" y="-1" relative="1" as="geometry">
                        <mxPoint x="-84" as="offset"/>
                    </mxGeometry>
                </mxCell>
                <mxCell id="fhI_MAW543BDFD8Se3oL-247" value="" style="curved=1;endArrow=classic;html=1;strokeWidth=2;dashed=1;dashPattern=1 1;labelBackgroundColor=none;fontColor=default;labelBorderColor=none;strokeColor=#999999;" parent="1" edge="1">
                    <mxGeometry width="50" height="50" relative="1" as="geometry">
                        <mxPoint x="421" y="2560" as="sourcePoint"/>
                        <mxPoint x="421" y="2600" as="targetPoint"/>
                        <Array as="points">
                            <mxPoint x="451" y="2560"/>
                            <mxPoint x="451" y="2600"/>
                        </Array>
                    </mxGeometry>
                </mxCell>
                <mxCell id="fhI_MAW543BDFD8Se3oL-248" value="" style="curved=1;endArrow=classic;html=1;strokeWidth=2;dashed=1;dashPattern=1 1;labelBackgroundColor=none;fontColor=default;labelBorderColor=none;strokeColor=#999999;" parent="1" edge="1">
                    <mxGeometry width="50" height="50" relative="1" as="geometry">
                        <mxPoint x="621" y="2400" as="sourcePoint"/>
                        <mxPoint x="621" y="2440" as="targetPoint"/>
                        <Array as="points">
                            <mxPoint x="651" y="2400"/>
                            <mxPoint x="651" y="2440"/>
                        </Array>
                    </mxGeometry>
                </mxCell>
                <mxCell id="fhI_MAW543BDFD8Se3oL-249" value="" style="curved=1;endArrow=classic;html=1;strokeWidth=2;dashed=1;dashPattern=1 1;labelBackgroundColor=none;fontColor=default;labelBorderColor=none;strokeColor=#999999;" parent="1" edge="1">
                    <mxGeometry width="50" height="50" relative="1" as="geometry">
                        <mxPoint x="621" y="2680" as="sourcePoint"/>
                        <mxPoint x="621" y="2720" as="targetPoint"/>
                        <Array as="points">
                            <mxPoint x="651" y="2680"/>
                            <mxPoint x="651" y="2720"/>
                        </Array>
                    </mxGeometry>
                </mxCell>
                <mxCell id="fhI_MAW543BDFD8Se3oL-250" value="" style="endArrow=none;html=1;strokeWidth=2;endFill=0;startArrow=classic;startFill=1;labelBackgroundColor=none;fontColor=default;labelBorderColor=none;strokeColor=#999999;" parent="1" edge="1">
                    <mxGeometry width="50" height="50" relative="1" as="geometry">
                        <mxPoint x="621" y="2680" as="sourcePoint"/>
                        <mxPoint x="821" y="2680" as="targetPoint"/>
                    </mxGeometry>
                </mxCell>
                <mxCell id="fhI_MAW543BDFD8Se3oL-251" value="哈希锚定" style="edgeLabel;html=1;align=center;verticalAlign=middle;resizable=0;points=[];labelBackgroundColor=none;fontColor=default;labelBorderColor=none;" parent="fhI_MAW543BDFD8Se3oL-250" vertex="1" connectable="0">
                    <mxGeometry x="0.1721" y="-1" relative="1" as="geometry">
                        <mxPoint x="-17" as="offset"/>
                    </mxGeometry>
                </mxCell>
                <mxCell id="fhI_MAW543BDFD8Se3oL-252" value="多重哈希" style="text;html=1;strokeColor=none;fillColor=none;align=center;verticalAlign=middle;whiteSpace=wrap;rounded=0;labelBackgroundColor=none;fontColor=default;labelBorderColor=none;" parent="1" vertex="1">
                    <mxGeometry x="451" y="2568" width="60" height="20" as="geometry"/>
                </mxCell>
                <mxCell id="fhI_MAW543BDFD8Se3oL-253" value="权限校验" style="text;html=1;strokeColor=none;fillColor=none;align=center;verticalAlign=middle;whiteSpace=wrap;rounded=0;labelBackgroundColor=none;fontColor=default;labelBorderColor=none;" parent="1" vertex="1">
                    <mxGeometry x="651" y="2410" width="60" height="20" as="geometry"/>
                </mxCell>
                <mxCell id="fhI_MAW543BDFD8Se3oL-254" value="" style="endArrow=none;html=1;strokeWidth=2;endFill=0;startArrow=classic;startFill=1;labelBackgroundColor=none;fontColor=default;labelBorderColor=none;strokeColor=#999999;" parent="1" edge="1">
                    <mxGeometry width="50" height="50" relative="1" as="geometry">
                        <mxPoint x="221" y="2520" as="sourcePoint"/>
                        <mxPoint x="821" y="2520" as="targetPoint"/>
                    </mxGeometry>
                </mxCell>
                <mxCell id="fhI_MAW543BDFD8Se3oL-255" value="返回存储URL" style="edgeLabel;html=1;align=center;verticalAlign=middle;resizable=0;points=[];labelBackgroundColor=none;fontColor=default;labelBorderColor=none;" parent="fhI_MAW543BDFD8Se3oL-254" vertex="1" connectable="0">
                    <mxGeometry x="0.1721" y="-1" relative="1" as="geometry">
                        <mxPoint x="-17" as="offset"/>
                    </mxGeometry>
                </mxCell>
                <mxCell id="fhI_MAW543BDFD8Se3oL-256" value="" style="endArrow=none;html=1;strokeWidth=2;endFill=0;startArrow=classic;startFill=1;labelBackgroundColor=none;fontColor=default;labelBorderColor=none;strokeColor=#999999;" parent="1" edge="1">
                    <mxGeometry width="50" height="50" relative="1" as="geometry">
                        <mxPoint x="221" y="2440" as="sourcePoint"/>
                        <mxPoint x="621" y="2440" as="targetPoint"/>
                    </mxGeometry>
                </mxCell>
                <mxCell id="fhI_MAW543BDFD8Se3oL-257" value="返回接入凭证" style="edgeLabel;html=1;align=center;verticalAlign=middle;resizable=0;points=[];labelBackgroundColor=none;fontColor=default;labelBorderColor=none;" parent="fhI_MAW543BDFD8Se3oL-256" vertex="1" connectable="0">
                    <mxGeometry x="0.1721" y="-1" relative="1" as="geometry">
                        <mxPoint x="-17" as="offset"/>
                    </mxGeometry>
                </mxCell>
                <mxCell id="fhI_MAW543BDFD8Se3oL-258" value="" style="curved=1;endArrow=classic;html=1;strokeWidth=2;dashed=1;dashPattern=1 1;labelBackgroundColor=none;fontColor=default;labelBorderColor=none;strokeColor=#999999;" parent="1" edge="1">
                    <mxGeometry width="50" height="50" relative="1" as="geometry">
                        <mxPoint x="821" y="2480" as="sourcePoint"/>
                        <mxPoint x="821" y="2520" as="targetPoint"/>
                        <Array as="points">
                            <mxPoint x="851" y="2480"/>
                            <mxPoint x="851" y="2520"/>
                        </Array>
                    </mxGeometry>
                </mxCell>
                <mxCell id="fhI_MAW543BDFD8Se3oL-259" value="存储资源校验" style="text;html=1;strokeColor=none;fillColor=none;align=center;verticalAlign=middle;whiteSpace=wrap;rounded=0;labelBackgroundColor=none;fontColor=default;labelBorderColor=none;" parent="1" vertex="1">
                    <mxGeometry x="851" y="2490" width="60" height="20" as="geometry"/>
                </mxCell>
                <mxCell id="fhI_MAW543BDFD8Se3oL-260" value="操作存证" style="text;html=1;strokeColor=none;fillColor=none;align=center;verticalAlign=middle;whiteSpace=wrap;rounded=0;labelBackgroundColor=none;fontColor=default;labelBorderColor=none;" parent="1" vertex="1">
                    <mxGeometry x="651" y="2690" width="60" height="20" as="geometry"/>
                </mxCell>
                <mxCell id="fhI_MAW543BDFD8Se3oL-261" value="" style="endArrow=none;html=1;strokeWidth=2;endFill=0;startArrow=classic;startFill=1;labelBackgroundColor=none;fontColor=default;labelBorderColor=none;strokeColor=#999999;" parent="1" edge="1">
                    <mxGeometry width="50" height="50" relative="1" as="geometry">
                        <mxPoint x="221" y="2720" as="sourcePoint"/>
                        <mxPoint x="621" y="2720" as="targetPoint"/>
                    </mxGeometry>
                </mxCell>
                <mxCell id="fhI_MAW543BDFD8Se3oL-262" value="数字资产存储成功" style="edgeLabel;html=1;align=center;verticalAlign=middle;resizable=0;points=[];labelBackgroundColor=none;fontColor=default;labelBorderColor=none;" parent="fhI_MAW543BDFD8Se3oL-261" vertex="1" connectable="0">
                    <mxGeometry x="0.1721" y="-1" relative="1" as="geometry">
                        <mxPoint x="-17" as="offset"/>
                    </mxGeometry>
                </mxCell>
                <mxCell id="fhI_MAW543BDFD8Se3oL-263" value="" style="curved=1;endArrow=classic;html=1;strokeWidth=2;dashed=1;dashPattern=1 1;labelBackgroundColor=none;fontColor=default;labelBorderColor=none;strokeColor=#999999;" parent="1" edge="1">
                    <mxGeometry width="50" height="50" relative="1" as="geometry">
                        <mxPoint x="221" y="2600" as="sourcePoint"/>
                        <mxPoint x="221" y="2640" as="targetPoint"/>
                        <Array as="points">
                            <mxPoint x="251" y="2600"/>
                            <mxPoint x="251" y="2640"/>
                        </Array>
                    </mxGeometry>
                </mxCell>
                <mxCell id="fhI_MAW543BDFD8Se3oL-264" value="安全加密" style="text;html=1;strokeColor=none;fillColor=none;align=center;verticalAlign=middle;whiteSpace=wrap;rounded=0;labelBackgroundColor=none;fontColor=default;labelBorderColor=none;" parent="1" vertex="1">
                    <mxGeometry x="251" y="2610" width="60" height="20" as="geometry"/>
                </mxCell>
                <mxCell id="fhI_MAW543BDFD8Se3oL-265" value="" style="endArrow=none;html=1;strokeWidth=2;endFill=0;startArrow=classic;startFill=1;labelBackgroundColor=none;fontColor=default;labelBorderColor=none;strokeColor=#999999;" parent="1" edge="1">
                    <mxGeometry width="50" height="50" relative="1" as="geometry">
                        <mxPoint x="221" y="2600" as="sourcePoint"/>
                        <mxPoint x="421" y="2600" as="targetPoint"/>
                    </mxGeometry>
                </mxCell>
                <mxCell id="fhI_MAW543BDFD8Se3oL-266" value="数据指纹" style="edgeLabel;html=1;align=center;verticalAlign=middle;resizable=0;points=[];labelBackgroundColor=none;fontColor=default;labelBorderColor=none;" parent="fhI_MAW543BDFD8Se3oL-265" vertex="1" connectable="0">
                    <mxGeometry x="0.1721" y="-1" relative="1" as="geometry">
                        <mxPoint x="-17" as="offset"/>
                    </mxGeometry>
                </mxCell>
                <mxCell id="fhI_MAW543BDFD8Se3oL-267" value="2" style="whiteSpace=wrap;html=1;shape=partialRectangle;top=0;left=0;bottom=1;right=0;points=[[0,1],[1,1]];fillColor=none;align=center;verticalAlign=bottom;routingCenterY=0.5;snapToPoint=1;recursiveResize=0;autosize=1;treeFolding=1;treeMoving=1;newEdgeStyle={&quot;edgeStyle&quot;:&quot;entityRelationEdgeStyle&quot;,&quot;startArrow&quot;:&quot;none&quot;,&quot;endArrow&quot;:&quot;none&quot;,&quot;segment&quot;:10,&quot;curved&quot;:1};strokeColor=default;strokeWidth=1;" parent="1" vertex="1">
                    <mxGeometry x="496.19" y="569" width="40" height="20" as="geometry"/>
                </mxCell>
                <mxCell id="fhI_MAW543BDFD8Se3oL-268" value="" style="edgeStyle=entityRelationEdgeStyle;startArrow=none;endArrow=none;segment=10;curved=1;rounded=0;sketch=0;strokeColor=default;strokeWidth=1;jumpStyle=none;" parent="1" target="fhI_MAW543BDFD8Se3oL-267" edge="1">
                    <mxGeometry relative="1" as="geometry">
                        <mxPoint x="436.19" y="609" as="sourcePoint"/>
                    </mxGeometry>
                </mxCell>
                <mxCell id="fhI_MAW543BDFD8Se3oL-269" value="21" style="whiteSpace=wrap;html=1;shape=partialRectangle;top=0;left=0;bottom=1;right=0;points=[[0,1],[1,1]];fillColor=none;align=center;verticalAlign=bottom;routingCenterY=0.5;snapToPoint=1;recursiveResize=0;autosize=1;treeFolding=1;treeMoving=1;newEdgeStyle={&quot;edgeStyle&quot;:&quot;entityRelationEdgeStyle&quot;,&quot;startArrow&quot;:&quot;none&quot;,&quot;endArrow&quot;:&quot;none&quot;,&quot;segment&quot;:10,&quot;curved&quot;:1};strokeColor=default;strokeWidth=1;" parent="1" vertex="1">
                    <mxGeometry x="657.5" y="615" width="50" height="20" as="geometry"/>
                </mxCell>
                <mxCell id="fhI_MAW543BDFD8Se3oL-270" value="" style="edgeStyle=entityRelationEdgeStyle;startArrow=none;endArrow=none;segment=10;curved=1;rounded=0;sketch=0;strokeColor=default;strokeWidth=1;jumpStyle=none;" parent="1" target="fhI_MAW543BDFD8Se3oL-269" edge="1">
                    <mxGeometry relative="1" as="geometry">
                        <mxPoint x="601.0000000000001" y="655" as="sourcePoint"/>
                    </mxGeometry>
                </mxCell>
                <mxCell id="fhI_MAW543BDFD8Se3oL-271" value="23" style="whiteSpace=wrap;html=1;shape=partialRectangle;top=0;left=0;bottom=1;right=0;points=[[0,1],[1,1]];fillColor=none;align=center;verticalAlign=bottom;routingCenterY=0.5;snapToPoint=1;recursiveResize=0;autosize=1;treeFolding=1;treeMoving=1;newEdgeStyle={&quot;edgeStyle&quot;:&quot;entityRelationEdgeStyle&quot;,&quot;startArrow&quot;:&quot;none&quot;,&quot;endArrow&quot;:&quot;none&quot;,&quot;segment&quot;:10,&quot;curved&quot;:1};strokeColor=default;strokeWidth=1;" parent="1" vertex="1">
                    <mxGeometry x="270.38" y="615" width="50" height="20" as="geometry"/>
                </mxCell>
                <mxCell id="fhI_MAW543BDFD8Se3oL-272" value="" style="edgeStyle=entityRelationEdgeStyle;startArrow=none;endArrow=none;segment=10;curved=1;rounded=0;sketch=0;strokeColor=default;strokeWidth=1;jumpStyle=none;" parent="1" target="fhI_MAW543BDFD8Se3oL-271" edge="1">
                    <mxGeometry relative="1" as="geometry">
                        <mxPoint x="213.88" y="655" as="sourcePoint"/>
                    </mxGeometry>
                </mxCell>
                <mxCell id="fhI_MAW543BDFD8Se3oL-273" value="24" style="whiteSpace=wrap;html=1;shape=partialRectangle;top=0;left=0;bottom=1;right=0;points=[[0,1],[1,1]];fillColor=none;align=center;verticalAlign=bottom;routingCenterY=0.5;snapToPoint=1;recursiveResize=0;autosize=1;treeFolding=1;treeMoving=1;newEdgeStyle={&quot;edgeStyle&quot;:&quot;entityRelationEdgeStyle&quot;,&quot;startArrow&quot;:&quot;none&quot;,&quot;endArrow&quot;:&quot;none&quot;,&quot;segment&quot;:10,&quot;curved&quot;:1};strokeColor=default;strokeWidth=1;" parent="1" vertex="1">
                    <mxGeometry x="490" y="725" width="50" height="20" as="geometry"/>
                </mxCell>
                <mxCell id="fhI_MAW543BDFD8Se3oL-274" value="" style="edgeStyle=entityRelationEdgeStyle;startArrow=none;endArrow=none;segment=10;curved=1;rounded=0;sketch=0;strokeColor=default;strokeWidth=1;jumpStyle=none;exitX=0.5;exitY=0;exitDx=0;exitDy=0;" parent="1" source="fhI_MAW543BDFD8Se3oL-106" edge="1">
                    <mxGeometry relative="1" as="geometry">
                        <mxPoint x="415.88" y="646" as="sourcePoint"/>
                        <mxPoint x="492.41176470588243" y="745.5882352941178" as="targetPoint"/>
                    </mxGeometry>
                </mxCell>
                <mxCell id="fhI_MAW543BDFD8Se3oL-277" value="26" style="whiteSpace=wrap;html=1;shape=partialRectangle;top=0;left=0;bottom=1;right=0;points=[[0,1],[1,1]];fillColor=none;align=center;verticalAlign=bottom;routingCenterY=0.5;snapToPoint=1;recursiveResize=0;autosize=1;treeFolding=1;treeMoving=1;newEdgeStyle={&quot;edgeStyle&quot;:&quot;entityRelationEdgeStyle&quot;,&quot;startArrow&quot;:&quot;none&quot;,&quot;endArrow&quot;:&quot;none&quot;,&quot;segment&quot;:10,&quot;curved&quot;:1};strokeColor=default;strokeWidth=1;" parent="1" vertex="1">
                    <mxGeometry x="662.5" y="730" width="50" height="20" as="geometry"/>
                </mxCell>
                <mxCell id="fhI_MAW543BDFD8Se3oL-278" value="" style="edgeStyle=entityRelationEdgeStyle;startArrow=none;endArrow=none;segment=10;curved=1;rounded=0;sketch=0;strokeColor=default;strokeWidth=1;jumpStyle=none;" parent="1" target="fhI_MAW543BDFD8Se3oL-277" edge="1">
                    <mxGeometry relative="1" as="geometry">
                        <mxPoint x="606" y="770" as="sourcePoint"/>
                    </mxGeometry>
                </mxCell>
                <mxCell id="fhI_MAW543BDFD8Se3oL-283" value="3" style="whiteSpace=wrap;html=1;shape=partialRectangle;top=0;left=0;bottom=1;right=0;points=[[0,1],[1,1]];fillColor=none;align=center;verticalAlign=bottom;routingCenterY=0.5;snapToPoint=1;recursiveResize=0;autosize=1;treeFolding=1;treeMoving=1;newEdgeStyle={&quot;edgeStyle&quot;:&quot;entityRelationEdgeStyle&quot;,&quot;startArrow&quot;:&quot;none&quot;,&quot;endArrow&quot;:&quot;none&quot;,&quot;segment&quot;:10,&quot;curved&quot;:1};strokeColor=default;strokeWidth=1;" parent="1" vertex="1">
                    <mxGeometry x="487.38" y="1568" width="40" height="20" as="geometry"/>
                </mxCell>
                <mxCell id="fhI_MAW543BDFD8Se3oL-284" value="" style="edgeStyle=entityRelationEdgeStyle;startArrow=none;endArrow=none;segment=10;curved=1;rounded=0;sketch=0;strokeColor=default;strokeWidth=1;jumpStyle=none;" parent="1" target="fhI_MAW543BDFD8Se3oL-283" edge="1">
                    <mxGeometry relative="1" as="geometry">
                        <mxPoint x="427.3800000000001" y="1608" as="sourcePoint"/>
                    </mxGeometry>
                </mxCell>
                <mxCell id="fhI_MAW543BDFD8Se3oL-285" value="4" style="whiteSpace=wrap;html=1;shape=partialRectangle;top=0;left=0;bottom=1;right=0;points=[[0,1],[1,1]];fillColor=none;align=center;verticalAlign=bottom;routingCenterY=0.5;snapToPoint=1;recursiveResize=0;autosize=1;treeFolding=1;treeMoving=1;newEdgeStyle={&quot;edgeStyle&quot;:&quot;entityRelationEdgeStyle&quot;,&quot;startArrow&quot;:&quot;none&quot;,&quot;endArrow&quot;:&quot;none&quot;,&quot;segment&quot;:10,&quot;curved&quot;:1};strokeColor=default;strokeWidth=1;" parent="1" vertex="1">
                    <mxGeometry x="60" y="1625" width="40" height="20" as="geometry"/>
                </mxCell>
                <mxCell id="fhI_MAW543BDFD8Se3oL-286" value="" style="edgeStyle=entityRelationEdgeStyle;startArrow=none;endArrow=none;segment=10;curved=1;rounded=0;sketch=0;strokeColor=default;strokeWidth=1;jumpStyle=none;exitX=0;exitY=0.5;exitDx=0;exitDy=0;" parent="1" source="fhI_MAW543BDFD8Se3oL-215" target="fhI_MAW543BDFD8Se3oL-285" edge="1">
                    <mxGeometry relative="1" as="geometry">
                        <mxPoint x="162.8800000000001" y="1660" as="sourcePoint"/>
                    </mxGeometry>
                </mxCell>
                <mxCell id="fhI_MAW543BDFD8Se3oL-289" value="31" style="whiteSpace=wrap;html=1;shape=partialRectangle;top=0;left=0;bottom=1;right=0;points=[[0,1],[1,1]];fillColor=none;align=center;verticalAlign=bottom;routingCenterY=0.5;snapToPoint=1;recursiveResize=0;autosize=1;treeFolding=1;treeMoving=1;newEdgeStyle={&quot;edgeStyle&quot;:&quot;entityRelationEdgeStyle&quot;,&quot;startArrow&quot;:&quot;none&quot;,&quot;endArrow&quot;:&quot;none&quot;,&quot;segment&quot;:10,&quot;curved&quot;:1};strokeColor=default;strokeWidth=1;" parent="1" vertex="1">
                    <mxGeometry x="50" y="1753" width="50" height="20" as="geometry"/>
                </mxCell>
                <mxCell id="fhI_MAW543BDFD8Se3oL-290" value="" style="edgeStyle=entityRelationEdgeStyle;startArrow=none;endArrow=none;segment=10;curved=1;rounded=0;sketch=0;strokeColor=default;strokeWidth=1;jumpStyle=none;exitX=0;exitY=0.5;exitDx=0;exitDy=0;" parent="1" source="fhI_MAW543BDFD8Se3oL-287" target="fhI_MAW543BDFD8Se3oL-289" edge="1">
                    <mxGeometry relative="1" as="geometry">
                        <mxPoint x="151" y="1792" as="sourcePoint"/>
                    </mxGeometry>
                </mxCell>
                <mxCell id="fhI_MAW543BDFD8Se3oL-291" value="32" style="whiteSpace=wrap;html=1;shape=partialRectangle;top=0;left=0;bottom=1;right=0;points=[[0,1],[1,1]];fillColor=none;align=center;verticalAlign=bottom;routingCenterY=0.5;snapToPoint=1;recursiveResize=0;autosize=1;treeFolding=1;treeMoving=1;newEdgeStyle={&quot;edgeStyle&quot;:&quot;entityRelationEdgeStyle&quot;,&quot;startArrow&quot;:&quot;none&quot;,&quot;endArrow&quot;:&quot;none&quot;,&quot;segment&quot;:10,&quot;curved&quot;:1};strokeColor=default;strokeWidth=1;" parent="1" vertex="1">
                    <mxGeometry x="50" y="2030" width="50" height="20" as="geometry"/>
                </mxCell>
                <mxCell id="fhI_MAW543BDFD8Se3oL-292" value="" style="edgeStyle=entityRelationEdgeStyle;startArrow=none;endArrow=none;segment=10;curved=1;rounded=0;sketch=0;strokeColor=default;strokeWidth=1;jumpStyle=none;exitX=0;exitY=0.5;exitDx=0;exitDy=0;" parent="1" source="fhI_MAW543BDFD8Se3oL-288" target="fhI_MAW543BDFD8Se3oL-291" edge="1">
                    <mxGeometry relative="1" as="geometry">
                        <mxPoint x="141" y="2066" as="sourcePoint"/>
                    </mxGeometry>
                </mxCell>
                <mxCell id="fhI_MAW543BDFD8Se3oL-299" value="2" style="whiteSpace=wrap;html=1;shape=partialRectangle;top=0;left=0;bottom=1;right=0;points=[[0,1],[1,1]];fillColor=none;align=center;verticalAlign=bottom;routingCenterY=0.5;snapToPoint=1;recursiveResize=0;autosize=1;treeFolding=1;treeMoving=1;newEdgeStyle={&quot;edgeStyle&quot;:&quot;entityRelationEdgeStyle&quot;,&quot;startArrow&quot;:&quot;none&quot;,&quot;endArrow&quot;:&quot;none&quot;,&quot;segment&quot;:10,&quot;curved&quot;:1};strokeColor=default;strokeWidth=1;fontColor=default;" parent="1" vertex="1">
                    <mxGeometry x="476.26" y="2280" width="40" height="20" as="geometry"/>
                </mxCell>
                <mxCell id="fhI_MAW543BDFD8Se3oL-300" value="" style="edgeStyle=entityRelationEdgeStyle;startArrow=none;endArrow=none;segment=10;curved=1;rounded=0;sketch=0;strokeColor=default;strokeWidth=1;jumpStyle=none;fontColor=default;" parent="1" target="fhI_MAW543BDFD8Se3oL-299" edge="1">
                    <mxGeometry relative="1" as="geometry">
                        <mxPoint x="416.2600000000001" y="2320" as="sourcePoint"/>
                    </mxGeometry>
                </mxCell>
                <mxCell id="fhI_MAW543BDFD8Se3oL-301" value="3" style="whiteSpace=wrap;html=1;shape=partialRectangle;top=0;left=0;bottom=1;right=0;points=[[0,1],[1,1]];fillColor=none;align=center;verticalAlign=bottom;routingCenterY=0.5;snapToPoint=1;recursiveResize=0;autosize=1;treeFolding=1;treeMoving=1;newEdgeStyle={&quot;edgeStyle&quot;:&quot;entityRelationEdgeStyle&quot;,&quot;startArrow&quot;:&quot;none&quot;,&quot;endArrow&quot;:&quot;none&quot;,&quot;segment&quot;:10,&quot;curved&quot;:1};strokeColor=default;strokeWidth=1;fontColor=default;" parent="1" vertex="1">
                    <mxGeometry x="675.26" y="2280" width="40" height="20" as="geometry"/>
                </mxCell>
                <mxCell id="fhI_MAW543BDFD8Se3oL-302" value="" style="edgeStyle=entityRelationEdgeStyle;startArrow=none;endArrow=none;segment=10;curved=1;rounded=0;sketch=0;strokeColor=default;strokeWidth=1;jumpStyle=none;fontColor=default;" parent="1" target="fhI_MAW543BDFD8Se3oL-301" edge="1">
                    <mxGeometry relative="1" as="geometry">
                        <mxPoint x="615.26" y="2320" as="sourcePoint"/>
                    </mxGeometry>
                </mxCell>
                <mxCell id="fhI_MAW543BDFD8Se3oL-303" value="4" style="whiteSpace=wrap;html=1;shape=partialRectangle;top=0;left=0;bottom=1;right=0;points=[[0,1],[1,1]];fillColor=none;align=center;verticalAlign=bottom;routingCenterY=0.5;snapToPoint=1;recursiveResize=0;autosize=1;treeFolding=1;treeMoving=1;newEdgeStyle={&quot;edgeStyle&quot;:&quot;entityRelationEdgeStyle&quot;,&quot;startArrow&quot;:&quot;none&quot;,&quot;endArrow&quot;:&quot;none&quot;,&quot;segment&quot;:10,&quot;curved&quot;:1};strokeColor=default;strokeWidth=1;fontColor=default;" parent="1" vertex="1">
                    <mxGeometry x="871" y="2280" width="40" height="20" as="geometry"/>
                </mxCell>
                <mxCell id="fhI_MAW543BDFD8Se3oL-304" value="" style="edgeStyle=entityRelationEdgeStyle;startArrow=none;endArrow=none;segment=10;curved=1;rounded=0;sketch=0;strokeColor=default;strokeWidth=1;jumpStyle=none;fontColor=default;" parent="1" target="fhI_MAW543BDFD8Se3oL-303" edge="1">
                    <mxGeometry relative="1" as="geometry">
                        <mxPoint x="811" y="2320" as="sourcePoint"/>
                    </mxGeometry>
                </mxCell>
                <mxCell id="fhI_MAW543BDFD8Se3oL-305" value="1" style="whiteSpace=wrap;html=1;shape=partialRectangle;top=0;left=0;bottom=1;right=0;points=[[0,1],[1,1]];fillColor=none;align=center;verticalAlign=bottom;routingCenterY=0.5;snapToPoint=1;recursiveResize=0;autosize=1;treeFolding=1;treeMoving=1;newEdgeStyle={&quot;edgeStyle&quot;:&quot;entityRelationEdgeStyle&quot;,&quot;startArrow&quot;:&quot;none&quot;,&quot;endArrow&quot;:&quot;none&quot;,&quot;segment&quot;:10,&quot;curved&quot;:1};strokeColor=default;strokeWidth=1;fontColor=default;" parent="1" vertex="1">
                    <mxGeometry x="273.26" y="2280" width="40" height="20" as="geometry"/>
                </mxCell>
                <mxCell id="fhI_MAW543BDFD8Se3oL-306" value="" style="edgeStyle=entityRelationEdgeStyle;startArrow=none;endArrow=none;segment=10;curved=1;rounded=0;sketch=0;strokeColor=default;strokeWidth=1;jumpStyle=none;fontColor=default;" parent="1" target="fhI_MAW543BDFD8Se3oL-305" edge="1">
                    <mxGeometry relative="1" as="geometry">
                        <mxPoint x="213.26" y="2320" as="sourcePoint"/>
                    </mxGeometry>
                </mxCell>
                <mxCell id="fhI_MAW543BDFD8Se3oL-318" style="edgeStyle=orthogonalEdgeStyle;rounded=0;orthogonalLoop=1;jettySize=auto;html=1;exitX=1;exitY=0.5;exitDx=0;exitDy=0;entryX=0;entryY=0.5;entryDx=0;entryDy=0;startArrow=classic;startFill=1;endArrow=classic;endFill=1;strokeWidth=2;" parent="1" edge="1">
                    <mxGeometry relative="1" as="geometry">
                        <mxPoint x="490.0000000000041" y="857.9999999999998" as="sourcePoint"/>
                        <mxPoint x="549.5" y="857.9999999999998" as="targetPoint"/>
                    </mxGeometry>
                </mxCell>
                <mxCell id="fhI_MAW543BDFD8Se3oL-319" style="edgeStyle=orthogonalEdgeStyle;rounded=0;orthogonalLoop=1;jettySize=auto;html=1;exitX=1;exitY=0.5;exitDx=0;exitDy=0;entryX=0;entryY=0.5;entryDx=0;entryDy=0;startArrow=classic;startFill=1;endArrow=classic;endFill=1;strokeWidth=2;" parent="1" edge="1">
                    <mxGeometry relative="1" as="geometry">
                        <mxPoint x="289.0000000000041" y="857.9999999999998" as="sourcePoint"/>
                        <mxPoint x="348.5" y="857.9999999999998" as="targetPoint"/>
                    </mxGeometry>
                </mxCell>
                <mxCell id="fhI_MAW543BDFD8Se3oL-320" value="22" style="whiteSpace=wrap;html=1;shape=partialRectangle;top=0;left=0;bottom=1;right=0;points=[[0,1],[1,1]];fillColor=none;align=center;verticalAlign=bottom;routingCenterY=0.5;snapToPoint=1;recursiveResize=0;autosize=1;treeFolding=1;treeMoving=1;newEdgeStyle={&quot;edgeStyle&quot;:&quot;entityRelationEdgeStyle&quot;,&quot;startArrow&quot;:&quot;none&quot;,&quot;endArrow&quot;:&quot;none&quot;,&quot;segment&quot;:10,&quot;curved&quot;:1};strokeColor=default;strokeWidth=1;" parent="1" vertex="1">
                    <mxGeometry x="476.26" y="604" width="50" height="20" as="geometry"/>
                </mxCell>
                <mxCell id="fhI_MAW543BDFD8Se3oL-321" value="" style="edgeStyle=entityRelationEdgeStyle;startArrow=none;endArrow=none;segment=10;curved=1;rounded=0;sketch=0;strokeColor=default;strokeWidth=1;jumpStyle=none;" parent="1" edge="1">
                    <mxGeometry relative="1" as="geometry">
                        <mxPoint x="421.94" y="644.9999999999998" as="sourcePoint"/>
                        <mxPoint x="478.5882352941178" y="624.5294117647059" as="targetPoint"/>
                    </mxGeometry>
                </mxCell>
                <mxCell id="fhI_MAW543BDFD8Se3oL-322" value="25" style="whiteSpace=wrap;html=1;shape=partialRectangle;top=0;left=0;bottom=1;right=0;points=[[0,1],[1,1]];fillColor=none;align=center;verticalAlign=bottom;routingCenterY=0.5;snapToPoint=1;recursiveResize=0;autosize=1;treeFolding=1;treeMoving=1;newEdgeStyle={&quot;edgeStyle&quot;:&quot;entityRelationEdgeStyle&quot;,&quot;startArrow&quot;:&quot;none&quot;,&quot;endArrow&quot;:&quot;none&quot;,&quot;segment&quot;:10,&quot;curved&quot;:1};strokeColor=default;strokeWidth=1;" parent="1" vertex="1">
                    <mxGeometry x="268.63" y="730" width="50" height="20" as="geometry"/>
                </mxCell>
                <mxCell id="fhI_MAW543BDFD8Se3oL-323" value="" style="edgeStyle=entityRelationEdgeStyle;startArrow=none;endArrow=none;segment=10;curved=1;rounded=0;sketch=0;strokeColor=default;strokeWidth=1;jumpStyle=none;" parent="1" target="fhI_MAW543BDFD8Se3oL-322" edge="1">
                    <mxGeometry relative="1" as="geometry">
                        <mxPoint x="212.13" y="769.9999999999998" as="sourcePoint"/>
                    </mxGeometry>
                </mxCell>
                <mxCell id="fhI_MAW543BDFD8Se3oL-324" value="261" style="whiteSpace=wrap;html=1;shape=partialRectangle;top=0;left=0;bottom=1;right=0;points=[[0,1],[1,1]];fillColor=none;align=center;verticalAlign=bottom;routingCenterY=0.5;snapToPoint=1;recursiveResize=0;autosize=1;treeFolding=1;treeMoving=1;newEdgeStyle={&quot;edgeStyle&quot;:&quot;entityRelationEdgeStyle&quot;,&quot;startArrow&quot;:&quot;none&quot;,&quot;endArrow&quot;:&quot;none&quot;,&quot;segment&quot;:10,&quot;curved&quot;:1};strokeColor=default;strokeWidth=1;" parent="1" vertex="1">
                    <mxGeometry x="719" y="761" width="50" height="20" as="geometry"/>
                </mxCell>
                <mxCell id="fhI_MAW543BDFD8Se3oL-325" value="" style="edgeStyle=entityRelationEdgeStyle;startArrow=none;endArrow=none;segment=10;curved=1;rounded=0;sketch=0;strokeColor=default;strokeWidth=1;jumpStyle=none;" parent="1" target="fhI_MAW543BDFD8Se3oL-324" edge="1">
                    <mxGeometry relative="1" as="geometry">
                        <mxPoint x="662.5" y="801" as="sourcePoint"/>
                    </mxGeometry>
                </mxCell>
                <mxCell id="fhI_MAW543BDFD8Se3oL-326" value="262" style="whiteSpace=wrap;html=1;shape=partialRectangle;top=0;left=0;bottom=1;right=0;points=[[0,1],[1,1]];fillColor=none;align=center;verticalAlign=bottom;routingCenterY=0.5;snapToPoint=1;recursiveResize=0;autosize=1;treeFolding=1;treeMoving=1;newEdgeStyle={&quot;edgeStyle&quot;:&quot;entityRelationEdgeStyle&quot;,&quot;startArrow&quot;:&quot;none&quot;,&quot;endArrow&quot;:&quot;none&quot;,&quot;segment&quot;:10,&quot;curved&quot;:1};strokeColor=default;strokeWidth=1;" parent="1" vertex="1">
                    <mxGeometry x="719" y="800" width="50" height="20" as="geometry"/>
                </mxCell>
                <mxCell id="fhI_MAW543BDFD8Se3oL-327" value="" style="edgeStyle=entityRelationEdgeStyle;startArrow=none;endArrow=none;segment=10;curved=1;rounded=0;sketch=0;strokeColor=default;strokeWidth=1;jumpStyle=none;" parent="1" target="fhI_MAW543BDFD8Se3oL-326" edge="1">
                    <mxGeometry relative="1" as="geometry">
                        <mxPoint x="662.5" y="840" as="sourcePoint"/>
                    </mxGeometry>
                </mxCell>
                <mxCell id="fhI_MAW543BDFD8Se3oL-328" value="263" style="whiteSpace=wrap;html=1;shape=partialRectangle;top=0;left=0;bottom=1;right=0;points=[[0,1],[1,1]];fillColor=none;align=center;verticalAlign=bottom;routingCenterY=0.5;snapToPoint=1;recursiveResize=0;autosize=1;treeFolding=1;treeMoving=1;newEdgeStyle={&quot;edgeStyle&quot;:&quot;entityRelationEdgeStyle&quot;,&quot;startArrow&quot;:&quot;none&quot;,&quot;endArrow&quot;:&quot;none&quot;,&quot;segment&quot;:10,&quot;curved&quot;:1};strokeColor=default;strokeWidth=1;" parent="1" vertex="1">
                    <mxGeometry x="719" y="840" width="50" height="20" as="geometry"/>
                </mxCell>
                <mxCell id="fhI_MAW543BDFD8Se3oL-329" value="" style="edgeStyle=entityRelationEdgeStyle;startArrow=none;endArrow=none;segment=10;curved=1;rounded=0;sketch=0;strokeColor=default;strokeWidth=1;jumpStyle=none;" parent="1" target="fhI_MAW543BDFD8Se3oL-328" edge="1">
                    <mxGeometry relative="1" as="geometry">
                        <mxPoint x="662.5" y="880" as="sourcePoint"/>
                    </mxGeometry>
                </mxCell>
                <mxCell id="fhI_MAW543BDFD8Se3oL-330" value="264" style="whiteSpace=wrap;html=1;shape=partialRectangle;top=0;left=0;bottom=1;right=0;points=[[0,1],[1,1]];fillColor=none;align=center;verticalAlign=bottom;routingCenterY=0.5;snapToPoint=1;recursiveResize=0;autosize=1;treeFolding=1;treeMoving=1;newEdgeStyle={&quot;edgeStyle&quot;:&quot;entityRelationEdgeStyle&quot;,&quot;startArrow&quot;:&quot;none&quot;,&quot;endArrow&quot;:&quot;none&quot;,&quot;segment&quot;:10,&quot;curved&quot;:1};strokeColor=default;strokeWidth=1;" parent="1" vertex="1">
                    <mxGeometry x="719" y="880" width="50" height="20" as="geometry"/>
                </mxCell>
                <mxCell id="fhI_MAW543BDFD8Se3oL-331" value="" style="edgeStyle=entityRelationEdgeStyle;startArrow=none;endArrow=none;segment=10;curved=1;rounded=0;sketch=0;strokeColor=default;strokeWidth=1;jumpStyle=none;" parent="1" target="fhI_MAW543BDFD8Se3oL-330" edge="1">
                    <mxGeometry relative="1" as="geometry">
                        <mxPoint x="662.5" y="920" as="sourcePoint"/>
                    </mxGeometry>
                </mxCell>
                <mxCell id="fhI_MAW543BDFD8Se3oL-332" value="251" style="whiteSpace=wrap;html=1;shape=partialRectangle;top=0;left=0;bottom=1;right=0;points=[[0,1],[1,1]];fillColor=none;align=center;verticalAlign=bottom;routingCenterY=0.5;snapToPoint=1;recursiveResize=0;autosize=1;treeFolding=1;treeMoving=1;newEdgeStyle={&quot;edgeStyle&quot;:&quot;entityRelationEdgeStyle&quot;,&quot;startArrow&quot;:&quot;none&quot;,&quot;endArrow&quot;:&quot;none&quot;,&quot;segment&quot;:10,&quot;curved&quot;:1};strokeColor=default;strokeWidth=1;" parent="1" vertex="1">
                    <mxGeometry x="293.25" y="770" width="50" height="20" as="geometry"/>
                </mxCell>
                <mxCell id="fhI_MAW543BDFD8Se3oL-333" value="" style="edgeStyle=entityRelationEdgeStyle;startArrow=none;endArrow=none;segment=10;curved=1;rounded=0;sketch=0;strokeColor=default;strokeWidth=1;jumpStyle=none;" parent="1" target="fhI_MAW543BDFD8Se3oL-332" edge="1">
                    <mxGeometry relative="1" as="geometry">
                        <mxPoint x="236.75" y="810" as="sourcePoint"/>
                    </mxGeometry>
                </mxCell>
                <mxCell id="fhI_MAW543BDFD8Se3oL-334" value="252" style="whiteSpace=wrap;html=1;shape=partialRectangle;top=0;left=0;bottom=1;right=0;points=[[0,1],[1,1]];fillColor=none;align=center;verticalAlign=bottom;routingCenterY=0.5;snapToPoint=1;recursiveResize=0;autosize=1;treeFolding=1;treeMoving=1;newEdgeStyle={&quot;edgeStyle&quot;:&quot;entityRelationEdgeStyle&quot;,&quot;startArrow&quot;:&quot;none&quot;,&quot;endArrow&quot;:&quot;none&quot;,&quot;segment&quot;:10,&quot;curved&quot;:1};strokeColor=default;strokeWidth=1;" parent="1" vertex="1">
                    <mxGeometry x="293.25" y="809" width="50" height="20" as="geometry"/>
                </mxCell>
                <mxCell id="fhI_MAW543BDFD8Se3oL-335" value="" style="edgeStyle=entityRelationEdgeStyle;startArrow=none;endArrow=none;segment=10;curved=1;rounded=0;sketch=0;strokeColor=default;strokeWidth=1;jumpStyle=none;" parent="1" target="fhI_MAW543BDFD8Se3oL-334" edge="1">
                    <mxGeometry relative="1" as="geometry">
                        <mxPoint x="236.75" y="849" as="sourcePoint"/>
                    </mxGeometry>
                </mxCell>
                <mxCell id="fhI_MAW543BDFD8Se3oL-336" value="253" style="whiteSpace=wrap;html=1;shape=partialRectangle;top=0;left=0;bottom=1;right=0;points=[[0,1],[1,1]];fillColor=none;align=center;verticalAlign=bottom;routingCenterY=0.5;snapToPoint=1;recursiveResize=0;autosize=1;treeFolding=1;treeMoving=1;newEdgeStyle={&quot;edgeStyle&quot;:&quot;entityRelationEdgeStyle&quot;,&quot;startArrow&quot;:&quot;none&quot;,&quot;endArrow&quot;:&quot;none&quot;,&quot;segment&quot;:10,&quot;curved&quot;:1};strokeColor=default;strokeWidth=1;" parent="1" vertex="1">
                    <mxGeometry x="293.25" y="855" width="50" height="20" as="geometry"/>
                </mxCell>
                <mxCell id="fhI_MAW543BDFD8Se3oL-337" value="" style="edgeStyle=entityRelationEdgeStyle;startArrow=none;endArrow=none;segment=10;curved=1;rounded=0;sketch=0;strokeColor=default;strokeWidth=1;jumpStyle=none;" parent="1" target="fhI_MAW543BDFD8Se3oL-336" edge="1">
                    <mxGeometry relative="1" as="geometry">
                        <mxPoint x="236.75" y="889" as="sourcePoint"/>
                    </mxGeometry>
                </mxCell>
                <mxCell id="fhI_MAW543BDFD8Se3oL-338" value="254" style="whiteSpace=wrap;html=1;shape=partialRectangle;top=0;left=0;bottom=1;right=0;points=[[0,1],[1,1]];fillColor=none;align=center;verticalAlign=bottom;routingCenterY=0.5;snapToPoint=1;recursiveResize=0;autosize=1;treeFolding=1;treeMoving=1;newEdgeStyle={&quot;edgeStyle&quot;:&quot;entityRelationEdgeStyle&quot;,&quot;startArrow&quot;:&quot;none&quot;,&quot;endArrow&quot;:&quot;none&quot;,&quot;segment&quot;:10,&quot;curved&quot;:1};strokeColor=default;strokeWidth=1;" parent="1" vertex="1">
                    <mxGeometry x="293.25" y="889" width="50" height="20" as="geometry"/>
                </mxCell>
                <mxCell id="fhI_MAW543BDFD8Se3oL-339" value="" style="edgeStyle=entityRelationEdgeStyle;startArrow=none;endArrow=none;segment=10;curved=1;rounded=0;sketch=0;strokeColor=default;strokeWidth=1;jumpStyle=none;" parent="1" target="fhI_MAW543BDFD8Se3oL-338" edge="1">
                    <mxGeometry relative="1" as="geometry">
                        <mxPoint x="236.75" y="929" as="sourcePoint"/>
                    </mxGeometry>
                </mxCell>
                <mxCell id="fhI_MAW543BDFD8Se3oL-340" value="241" style="whiteSpace=wrap;html=1;shape=partialRectangle;top=0;left=0;bottom=1;right=0;points=[[0,1],[1,1]];fillColor=none;align=center;verticalAlign=bottom;routingCenterY=0.5;snapToPoint=1;recursiveResize=0;autosize=1;treeFolding=1;treeMoving=1;newEdgeStyle={&quot;edgeStyle&quot;:&quot;entityRelationEdgeStyle&quot;,&quot;startArrow&quot;:&quot;none&quot;,&quot;endArrow&quot;:&quot;none&quot;,&quot;segment&quot;:10,&quot;curved&quot;:1};strokeColor=default;strokeWidth=1;" parent="1" vertex="1">
                    <mxGeometry x="511" y="760.5" width="50" height="20" as="geometry"/>
                </mxCell>
                <mxCell id="fhI_MAW543BDFD8Se3oL-341" value="" style="edgeStyle=entityRelationEdgeStyle;startArrow=none;endArrow=none;segment=10;curved=1;rounded=0;sketch=0;strokeColor=default;strokeWidth=1;jumpStyle=none;" parent="1" edge="1">
                    <mxGeometry relative="1" as="geometry">
                        <mxPoint x="456.4999999999998" y="800.5" as="sourcePoint"/>
                        <mxPoint x="513.5882352941178" y="780.8823529411766" as="targetPoint"/>
                    </mxGeometry>
                </mxCell>
                <mxCell id="fhI_MAW543BDFD8Se3oL-342" value="242" style="whiteSpace=wrap;html=1;shape=partialRectangle;top=0;left=0;bottom=1;right=0;points=[[0,1],[1,1]];fillColor=none;align=center;verticalAlign=bottom;routingCenterY=0.5;snapToPoint=1;recursiveResize=0;autosize=1;treeFolding=1;treeMoving=1;newEdgeStyle={&quot;edgeStyle&quot;:&quot;entityRelationEdgeStyle&quot;,&quot;startArrow&quot;:&quot;none&quot;,&quot;endArrow&quot;:&quot;none&quot;,&quot;segment&quot;:10,&quot;curved&quot;:1};strokeColor=default;strokeWidth=1;" parent="1" vertex="1">
                    <mxGeometry x="511" y="799.5" width="50" height="20" as="geometry"/>
                </mxCell>
                <mxCell id="fhI_MAW543BDFD8Se3oL-343" value="" style="edgeStyle=entityRelationEdgeStyle;startArrow=none;endArrow=none;segment=10;curved=1;rounded=0;sketch=0;strokeColor=default;strokeWidth=1;jumpStyle=none;" parent="1" edge="1">
                    <mxGeometry relative="1" as="geometry">
                        <mxPoint x="456.4999999999998" y="839.4999999999998" as="sourcePoint"/>
                        <mxPoint x="513.5882352941178" y="819.7058823529412" as="targetPoint"/>
                    </mxGeometry>
                </mxCell>
                <mxCell id="fhI_MAW543BDFD8Se3oL-344" value="243" style="whiteSpace=wrap;html=1;shape=partialRectangle;top=0;left=0;bottom=1;right=0;points=[[0,1],[1,1]];fillColor=none;align=center;verticalAlign=bottom;routingCenterY=0.5;snapToPoint=1;recursiveResize=0;autosize=1;treeFolding=1;treeMoving=1;newEdgeStyle={&quot;edgeStyle&quot;:&quot;entityRelationEdgeStyle&quot;,&quot;startArrow&quot;:&quot;none&quot;,&quot;endArrow&quot;:&quot;none&quot;,&quot;segment&quot;:10,&quot;curved&quot;:1};strokeColor=default;strokeWidth=1;" parent="1" vertex="1">
                    <mxGeometry x="511" y="839.5" width="50" height="20" as="geometry"/>
                </mxCell>
                <mxCell id="fhI_MAW543BDFD8Se3oL-345" value="" style="edgeStyle=entityRelationEdgeStyle;startArrow=none;endArrow=none;segment=10;curved=1;rounded=0;sketch=0;strokeColor=default;strokeWidth=1;jumpStyle=none;" parent="1" edge="1">
                    <mxGeometry relative="1" as="geometry">
                        <mxPoint x="456.4999999999998" y="879.4999999999998" as="sourcePoint"/>
                        <mxPoint x="513.5882352941178" y="859.7058823529412" as="targetPoint"/>
                    </mxGeometry>
                </mxCell>
                <mxCell id="fhI_MAW543BDFD8Se3oL-346" value="244" style="whiteSpace=wrap;html=1;shape=partialRectangle;top=0;left=0;bottom=1;right=0;points=[[0,1],[1,1]];fillColor=none;align=center;verticalAlign=bottom;routingCenterY=0.5;snapToPoint=1;recursiveResize=0;autosize=1;treeFolding=1;treeMoving=1;newEdgeStyle={&quot;edgeStyle&quot;:&quot;entityRelationEdgeStyle&quot;,&quot;startArrow&quot;:&quot;none&quot;,&quot;endArrow&quot;:&quot;none&quot;,&quot;segment&quot;:10,&quot;curved&quot;:1};strokeColor=default;strokeWidth=1;" parent="1" vertex="1">
                    <mxGeometry x="511" y="879.5" width="50" height="20" as="geometry"/>
                </mxCell>
                <mxCell id="fhI_MAW543BDFD8Se3oL-347" value="" style="edgeStyle=entityRelationEdgeStyle;startArrow=none;endArrow=none;segment=10;curved=1;rounded=0;sketch=0;strokeColor=default;strokeWidth=1;jumpStyle=none;" parent="1" edge="1">
                    <mxGeometry relative="1" as="geometry">
                        <mxPoint x="456.4999999999998" y="919.4999999999998" as="sourcePoint"/>
                        <mxPoint x="513.5882352941178" y="899.7058823529412" as="targetPoint"/>
                    </mxGeometry>
                </mxCell>
                <mxCell id="fhI_MAW543BDFD8Se3oL-358" style="edgeStyle=orthogonalEdgeStyle;rounded=0;sketch=0;jumpStyle=none;orthogonalLoop=1;jettySize=auto;html=1;exitX=0.75;exitY=1;exitDx=0;exitDy=0;entryX=0.75;entryY=0;entryDx=0;entryDy=0;startArrow=none;startFill=0;endArrow=classic;endFill=1;strokeColor=default;strokeWidth=1;" parent="1" source="fhI_MAW543BDFD8Se3oL-308" target="fhI_MAW543BDFD8Se3oL-352" edge="1">
                    <mxGeometry relative="1" as="geometry"/>
                </mxCell>
                <mxCell id="fhI_MAW543BDFD8Se3oL-364" style="edgeStyle=orthogonalEdgeStyle;rounded=0;sketch=0;jumpStyle=none;orthogonalLoop=1;jettySize=auto;html=1;exitX=0.75;exitY=0;exitDx=0;exitDy=0;startArrow=classic;startFill=1;endArrow=none;endFill=0;strokeColor=default;strokeWidth=1;" parent="1" source="fhI_MAW543BDFD8Se3oL-308" edge="1">
                    <mxGeometry relative="1" as="geometry">
                        <mxPoint x="427.73275862068976" y="1113" as="targetPoint"/>
                    </mxGeometry>
                </mxCell>
                <mxCell id="fhI_MAW543BDFD8Se3oL-365" style="edgeStyle=orthogonalEdgeStyle;rounded=0;sketch=0;jumpStyle=none;orthogonalLoop=1;jettySize=auto;html=1;exitX=0.25;exitY=0;exitDx=0;exitDy=0;startArrow=classic;startFill=1;endArrow=none;endFill=0;strokeColor=default;strokeWidth=1;" parent="1" source="fhI_MAW543BDFD8Se3oL-308" edge="1">
                    <mxGeometry relative="1" as="geometry">
                        <mxPoint x="330.4913793103449" y="1113" as="targetPoint"/>
                    </mxGeometry>
                </mxCell>
                <mxCell id="fhI_MAW543BDFD8Se3oL-366" style="edgeStyle=orthogonalEdgeStyle;rounded=0;sketch=0;jumpStyle=none;orthogonalLoop=1;jettySize=auto;html=1;exitX=0.25;exitY=1;exitDx=0;exitDy=0;entryX=0.25;entryY=0;entryDx=0;entryDy=0;startArrow=classic;startFill=1;endArrow=none;endFill=0;strokeColor=default;strokeWidth=1;" parent="1" source="fhI_MAW543BDFD8Se3oL-308" target="fhI_MAW543BDFD8Se3oL-352" edge="1">
                    <mxGeometry relative="1" as="geometry"/>
                </mxCell>
                <mxCell id="fhI_MAW543BDFD8Se3oL-308" value="数据输入模块" style="rounded=0;whiteSpace=wrap;html=1;strokeColor=default;fontStyle=1" parent="1" vertex="1">
                    <mxGeometry x="282.25" y="1143" width="194.14334250121337" height="40" as="geometry"/>
                </mxCell>
                <mxCell id="fhI_MAW543BDFD8Se3oL-359" style="edgeStyle=orthogonalEdgeStyle;rounded=0;sketch=0;jumpStyle=none;orthogonalLoop=1;jettySize=auto;html=1;exitX=0.75;exitY=1;exitDx=0;exitDy=0;entryX=0.75;entryY=0;entryDx=0;entryDy=0;startArrow=none;startFill=0;endArrow=classic;endFill=1;strokeColor=default;strokeWidth=1;" parent="1" source="fhI_MAW543BDFD8Se3oL-352" target="fhI_MAW543BDFD8Se3oL-353" edge="1">
                    <mxGeometry relative="1" as="geometry"/>
                </mxCell>
                <mxCell id="fhI_MAW543BDFD8Se3oL-367" style="edgeStyle=orthogonalEdgeStyle;rounded=0;sketch=0;jumpStyle=none;orthogonalLoop=1;jettySize=auto;html=1;exitX=0.25;exitY=1;exitDx=0;exitDy=0;entryX=0.25;entryY=0;entryDx=0;entryDy=0;startArrow=classic;startFill=1;endArrow=none;endFill=0;strokeColor=default;strokeWidth=1;" parent="1" source="fhI_MAW543BDFD8Se3oL-352" target="fhI_MAW543BDFD8Se3oL-353" edge="1">
                    <mxGeometry relative="1" as="geometry"/>
                </mxCell>
                <mxCell id="fhI_MAW543BDFD8Se3oL-352" value="数据统一模型模块" style="rounded=0;whiteSpace=wrap;html=1;strokeColor=default;fontStyle=1" parent="1" vertex="1">
                    <mxGeometry x="282.25" y="1213" width="194.14334250121337" height="40" as="geometry"/>
                </mxCell>
                <mxCell id="fhI_MAW543BDFD8Se3oL-360" style="edgeStyle=orthogonalEdgeStyle;rounded=0;sketch=0;jumpStyle=none;orthogonalLoop=1;jettySize=auto;html=1;exitX=0.75;exitY=1;exitDx=0;exitDy=0;entryX=0.75;entryY=0;entryDx=0;entryDy=0;startArrow=none;startFill=0;endArrow=classic;endFill=1;strokeColor=default;strokeWidth=1;" parent="1" source="fhI_MAW543BDFD8Se3oL-353" target="fhI_MAW543BDFD8Se3oL-354" edge="1">
                    <mxGeometry relative="1" as="geometry"/>
                </mxCell>
                <mxCell id="fhI_MAW543BDFD8Se3oL-368" style="edgeStyle=orthogonalEdgeStyle;rounded=0;sketch=0;jumpStyle=none;orthogonalLoop=1;jettySize=auto;html=1;exitX=0.25;exitY=1;exitDx=0;exitDy=0;entryX=0.25;entryY=0;entryDx=0;entryDy=0;startArrow=classic;startFill=1;endArrow=none;endFill=0;strokeColor=default;strokeWidth=1;" parent="1" source="fhI_MAW543BDFD8Se3oL-353" target="fhI_MAW543BDFD8Se3oL-354" edge="1">
                    <mxGeometry relative="1" as="geometry"/>
                </mxCell>
                <mxCell id="fhI_MAW543BDFD8Se3oL-353" value="数据分块编码模块" style="rounded=0;whiteSpace=wrap;html=1;strokeColor=default;fontStyle=1" parent="1" vertex="1">
                    <mxGeometry x="282.2509351237664" y="1283" width="194.14334250121337" height="40" as="geometry"/>
                </mxCell>
                <mxCell id="fhI_MAW543BDFD8Se3oL-363" style="edgeStyle=orthogonalEdgeStyle;rounded=0;sketch=0;jumpStyle=none;orthogonalLoop=1;jettySize=auto;html=1;exitX=0.75;exitY=1;exitDx=0;exitDy=0;startArrow=none;startFill=0;endArrow=classic;endFill=1;strokeColor=default;strokeWidth=1;" parent="1" source="fhI_MAW543BDFD8Se3oL-354" edge="1">
                    <mxGeometry relative="1" as="geometry">
                        <mxPoint x="427.73275862068976" y="1423" as="targetPoint"/>
                    </mxGeometry>
                </mxCell>
                <mxCell id="fhI_MAW543BDFD8Se3oL-369" style="edgeStyle=orthogonalEdgeStyle;rounded=0;sketch=0;jumpStyle=none;orthogonalLoop=1;jettySize=auto;html=1;exitX=0.25;exitY=1;exitDx=0;exitDy=0;startArrow=classic;startFill=1;endArrow=none;endFill=0;strokeColor=default;strokeWidth=1;" parent="1" source="fhI_MAW543BDFD8Se3oL-354" edge="1">
                    <mxGeometry relative="1" as="geometry">
                        <mxPoint x="330.4913793103449" y="1423" as="targetPoint"/>
                    </mxGeometry>
                </mxCell>
                <mxCell id="fhI_MAW543BDFD8Se3oL-354" value="数据分块多重哈希模块" style="rounded=0;whiteSpace=wrap;html=1;strokeColor=default;fontStyle=1" parent="1" vertex="1">
                    <mxGeometry x="282.2466574987866" y="1353" width="194.14334250121337" height="40" as="geometry"/>
                </mxCell>
                <mxCell id="fhI_MAW543BDFD8Se3oL-356" value="251" style="whiteSpace=wrap;html=1;shape=partialRectangle;top=0;left=0;bottom=1;right=0;points=[[0,1],[1,1]];fillColor=none;align=center;verticalAlign=bottom;routingCenterY=0.5;snapToPoint=1;recursiveResize=0;autosize=1;treeFolding=1;treeMoving=1;newEdgeStyle={&quot;edgeStyle&quot;:&quot;entityRelationEdgeStyle&quot;,&quot;startArrow&quot;:&quot;none&quot;,&quot;endArrow&quot;:&quot;none&quot;,&quot;segment&quot;:10,&quot;curved&quot;:1};strokeColor=default;strokeWidth=1;" parent="1" vertex="1">
                    <mxGeometry x="445" y="1060" width="50" height="20" as="geometry"/>
                </mxCell>
                <mxCell id="fhI_MAW543BDFD8Se3oL-357" value="" style="edgeStyle=entityRelationEdgeStyle;startArrow=none;endArrow=none;segment=10;curved=1;rounded=0;sketch=0;strokeColor=default;strokeWidth=1;jumpStyle=none;" parent="1" target="fhI_MAW543BDFD8Se3oL-356" edge="1">
                    <mxGeometry relative="1" as="geometry">
                        <mxPoint x="388.4999999999999" y="1099.9999999999998" as="sourcePoint"/>
                    </mxGeometry>
                </mxCell>
                <mxCell id="fhI_MAW543BDFD8Se3oL-370" value="数据持久化" style="rounded=0;whiteSpace=wrap;html=1;strokeColor=default;fontStyle=1" parent="1" vertex="1">
                    <mxGeometry x="282.2466574987866" y="1423" width="194.14334250121337" height="40" as="geometry"/>
                </mxCell>
                <mxCell id="fhI_MAW543BDFD8Se3oL-371" value="反序列化" style="text;html=1;resizable=0;autosize=1;align=center;verticalAlign=middle;points=[];fillColor=none;strokeColor=none;rounded=0;" parent="1" vertex="1">
                    <mxGeometry x="274.51" y="1260" width="60" height="20" as="geometry"/>
                </mxCell>
                <mxCell id="fhI_MAW543BDFD8Se3oL-372" value="序列化" style="text;html=1;resizable=0;autosize=1;align=center;verticalAlign=middle;points=[];fillColor=none;strokeColor=none;rounded=0;" parent="1" vertex="1">
                    <mxGeometry x="434.75" y="1260" width="50" height="20" as="geometry"/>
                </mxCell>
                <mxCell id="fhI_MAW543BDFD8Se3oL-373" value="哈希" style="text;html=1;resizable=0;autosize=1;align=center;verticalAlign=middle;points=[];fillColor=none;strokeColor=none;rounded=0;" parent="1" vertex="1">
                    <mxGeometry x="435.25" y="1326" width="40" height="20" as="geometry"/>
                </mxCell>
                <mxCell id="fhI_MAW543BDFD8Se3oL-374" value="写入" style="text;html=1;resizable=0;autosize=1;align=center;verticalAlign=middle;points=[];fillColor=none;strokeColor=none;rounded=0;" parent="1" vertex="1">
                    <mxGeometry x="435.25" y="1397" width="40" height="20" as="geometry"/>
                </mxCell>
                <mxCell id="fhI_MAW543BDFD8Se3oL-375" value="读取" style="text;html=1;resizable=0;autosize=1;align=center;verticalAlign=middle;points=[];fillColor=none;strokeColor=none;rounded=0;" parent="1" vertex="1">
                    <mxGeometry x="284.51" y="1397" width="40" height="20" as="geometry"/>
                </mxCell>
                <mxCell id="fhI_MAW543BDFD8Se3oL-376" value="校验" style="text;html=1;resizable=0;autosize=1;align=center;verticalAlign=middle;points=[];fillColor=none;strokeColor=none;rounded=0;" parent="1" vertex="1">
                    <mxGeometry x="283.25" y="1328" width="40" height="20" as="geometry"/>
                </mxCell>
                <mxCell id="fhI_MAW543BDFD8Se3oL-377" value="匹配模型" style="text;html=1;resizable=0;autosize=1;align=center;verticalAlign=middle;points=[];fillColor=none;strokeColor=none;rounded=0;" parent="1" vertex="1">
                    <mxGeometry x="424.69" y="1188" width="60" height="20" as="geometry"/>
                </mxCell>
                <mxCell id="fhI_MAW543BDFD8Se3oL-378" value="格式输出" style="text;html=1;resizable=0;autosize=1;align=center;verticalAlign=middle;points=[];fillColor=none;strokeColor=none;rounded=0;" parent="1" vertex="1">
                    <mxGeometry x="273.95" y="1188" width="60" height="20" as="geometry"/>
                </mxCell>
                <mxCell id="fhI_MAW543BDFD8Se3oL-379" value="创建" style="text;html=1;resizable=0;autosize=1;align=center;verticalAlign=middle;points=[];fillColor=none;strokeColor=none;rounded=0;" parent="1" vertex="1">
                    <mxGeometry x="439.25" y="1119" width="40" height="20" as="geometry"/>
                </mxCell>
                <mxCell id="fhI_MAW543BDFD8Se3oL-380" value="获取" style="text;html=1;resizable=0;autosize=1;align=center;verticalAlign=middle;points=[];fillColor=none;strokeColor=none;rounded=0;" parent="1" vertex="1">
                    <mxGeometry x="285.13" y="1120" width="40" height="20" as="geometry"/>
                </mxCell>
                <mxCell id="fhI_MAW543BDFD8Se3oL-382" value="241" style="whiteSpace=wrap;html=1;shape=partialRectangle;top=0;left=0;bottom=1;right=0;points=[[0,1],[1,1]];fillColor=none;align=center;verticalAlign=bottom;routingCenterY=0.5;snapToPoint=1;recursiveResize=0;autosize=1;treeFolding=1;treeMoving=1;newEdgeStyle={&quot;edgeStyle&quot;:&quot;entityRelationEdgeStyle&quot;,&quot;startArrow&quot;:&quot;none&quot;,&quot;endArrow&quot;:&quot;none&quot;,&quot;segment&quot;:10,&quot;curved&quot;:1};strokeColor=default;strokeWidth=1;" parent="1" vertex="1">
                    <mxGeometry x="516" y="1120" width="50" height="20" as="geometry"/>
                </mxCell>
                <mxCell id="fhI_MAW543BDFD8Se3oL-383" value="" style="edgeStyle=entityRelationEdgeStyle;startArrow=none;endArrow=none;segment=10;curved=1;rounded=0;sketch=0;strokeColor=default;strokeWidth=1;jumpStyle=none;" parent="1" target="fhI_MAW543BDFD8Se3oL-382" edge="1">
                    <mxGeometry relative="1" as="geometry">
                        <mxPoint x="459.5" y="1159.9999999999998" as="sourcePoint"/>
                    </mxGeometry>
                </mxCell>
                <mxCell id="fhI_MAW543BDFD8Se3oL-386" value="244" style="whiteSpace=wrap;html=1;shape=partialRectangle;top=0;left=0;bottom=1;right=0;points=[[0,1],[1,1]];fillColor=none;align=center;verticalAlign=bottom;routingCenterY=0.5;snapToPoint=1;recursiveResize=0;autosize=1;treeFolding=1;treeMoving=1;newEdgeStyle={&quot;edgeStyle&quot;:&quot;entityRelationEdgeStyle&quot;,&quot;startArrow&quot;:&quot;none&quot;,&quot;endArrow&quot;:&quot;none&quot;,&quot;segment&quot;:10,&quot;curved&quot;:1};strokeColor=default;strokeWidth=1;" parent="1" vertex="1">
                    <mxGeometry x="511.88" y="1404" width="50" height="20" as="geometry"/>
                </mxCell>
                <mxCell id="fhI_MAW543BDFD8Se3oL-387" value="" style="edgeStyle=entityRelationEdgeStyle;startArrow=none;endArrow=none;segment=10;curved=1;rounded=0;sketch=0;strokeColor=default;strokeWidth=1;jumpStyle=none;" parent="1" target="fhI_MAW543BDFD8Se3oL-386" edge="1">
                    <mxGeometry relative="1" as="geometry">
                        <mxPoint x="455.38" y="1443.9999999999998" as="sourcePoint"/>
                    </mxGeometry>
                </mxCell>
                <mxCell id="fhI_MAW543BDFD8Se3oL-390" value="2521" style="whiteSpace=wrap;html=1;shape=partialRectangle;top=0;left=0;bottom=1;right=0;points=[[0,1],[1,1]];fillColor=none;align=center;verticalAlign=bottom;routingCenterY=0.5;snapToPoint=1;recursiveResize=0;autosize=1;treeFolding=1;treeMoving=1;newEdgeStyle={&quot;edgeStyle&quot;:&quot;entityRelationEdgeStyle&quot;,&quot;startArrow&quot;:&quot;none&quot;,&quot;endArrow&quot;:&quot;none&quot;,&quot;segment&quot;:10,&quot;curved&quot;:1};strokeColor=default;strokeWidth=1;" parent="1" vertex="1">
                    <mxGeometry x="515.39" y="1190" width="60" height="20" as="geometry"/>
                </mxCell>
                <mxCell id="fhI_MAW543BDFD8Se3oL-391" value="" style="edgeStyle=entityRelationEdgeStyle;startArrow=none;endArrow=none;segment=10;curved=1;rounded=0;sketch=0;strokeColor=default;strokeWidth=1;jumpStyle=none;" parent="1" target="fhI_MAW543BDFD8Se3oL-390" edge="1">
                    <mxGeometry relative="1" as="geometry">
                        <mxPoint x="463.8899999999999" y="1230" as="sourcePoint"/>
                    </mxGeometry>
                </mxCell>
                <mxCell id="fhI_MAW543BDFD8Se3oL-393" value="2522" style="whiteSpace=wrap;html=1;shape=partialRectangle;top=0;left=0;bottom=1;right=0;points=[[0,1],[1,1]];fillColor=none;align=center;verticalAlign=bottom;routingCenterY=0.5;snapToPoint=1;recursiveResize=0;autosize=1;treeFolding=1;treeMoving=1;newEdgeStyle={&quot;edgeStyle&quot;:&quot;entityRelationEdgeStyle&quot;,&quot;startArrow&quot;:&quot;none&quot;,&quot;endArrow&quot;:&quot;none&quot;,&quot;segment&quot;:10,&quot;curved&quot;:1};strokeColor=default;strokeWidth=1;" parent="1" vertex="1">
                    <mxGeometry x="515.39" y="1271" width="60" height="20" as="geometry"/>
                </mxCell>
                <mxCell id="fhI_MAW543BDFD8Se3oL-394" value="" style="edgeStyle=entityRelationEdgeStyle;startArrow=none;endArrow=none;segment=10;curved=1;rounded=0;sketch=0;strokeColor=default;strokeWidth=1;jumpStyle=none;" parent="1" target="fhI_MAW543BDFD8Se3oL-393" edge="1">
                    <mxGeometry relative="1" as="geometry">
                        <mxPoint x="463.8899999999999" y="1311" as="sourcePoint"/>
                    </mxGeometry>
                </mxCell>
                <mxCell id="fhI_MAW543BDFD8Se3oL-396" value="2513" style="whiteSpace=wrap;html=1;shape=partialRectangle;top=0;left=0;bottom=1;right=0;points=[[0,1],[1,1]];fillColor=none;align=center;verticalAlign=bottom;routingCenterY=0.5;snapToPoint=1;recursiveResize=0;autosize=1;treeFolding=1;treeMoving=1;newEdgeStyle={&quot;edgeStyle&quot;:&quot;entityRelationEdgeStyle&quot;,&quot;startArrow&quot;:&quot;none&quot;,&quot;endArrow&quot;:&quot;none&quot;,&quot;segment&quot;:10,&quot;curved&quot;:1};strokeColor=default;strokeWidth=1;" parent="1" vertex="1">
                    <mxGeometry x="513.26" y="1341" width="60" height="20" as="geometry"/>
                </mxCell>
                <mxCell id="fhI_MAW543BDFD8Se3oL-397" value="" style="edgeStyle=entityRelationEdgeStyle;startArrow=none;endArrow=none;segment=10;curved=1;rounded=0;sketch=0;strokeColor=default;strokeWidth=1;jumpStyle=none;" parent="1" target="fhI_MAW543BDFD8Se3oL-396" edge="1">
                    <mxGeometry relative="1" as="geometry">
                        <mxPoint x="461.7599999999999" y="1381" as="sourcePoint"/>
                    </mxGeometry>
                </mxCell>
            </root>
        </mxGraphModel>
    </diagram>
</mxfile>